M48
; DRILL file {KiCad 5.1.4+dfsg1-1} date Fri 13 Mar 2020 02:04:46 PM EDT
; FORMAT={3:3/ absolute / metric / suppress leading zeros}
; #@! TF.CreationDate,2020-03-13T14:04:46-04:00
; #@! TF.GenerationSoftware,Kicad,Pcbnew,5.1.4+dfsg1-1
FMAT,2
METRIC,TZ
T1C0.400
T2C0.500
T3C0.700
T4C0.800
T5C0.914
T6C1.100
T7C1.200
T8C1.300
T9C3.200
T10C4.300
%
G90
G05
T1
X45603Y-45769
X68320Y-40065
X78238Y-37727
X81538Y-53886
X82296Y-44135
X82810Y-50786
X125936Y-37044
X148883Y-48747
X150857Y-31126
X161439Y-34178
X162274Y-33443
X163805Y-33416
X173751Y-34738
T2
X35306Y-39497
X39116Y-39497
X175387Y-39624
X179197Y-39624
T3
X71247Y-27305
X132715Y-27432
X66167Y-27305
X82423Y-27305
X127127Y-27432
X87503Y-27305
T4
X83947Y-31877
X83947Y-34417
X127127Y-44704
X127127Y-47244
X76835Y-37973
X76835Y-40513
X148463Y-38608
X148463Y-41148
X148463Y-32004
X148463Y-34544
X80391Y-37973
X80391Y-40513
X80391Y-44577
X80391Y-47117
X80391Y-31877
X80391Y-34417
X130683Y-38608
X130683Y-41148
X76835Y-44577
X76835Y-47117
X144907Y-32004
X144907Y-34544
X87503Y-31369
X87503Y-33909
X66167Y-31877
X66167Y-34417
X87503Y-44577
X87503Y-47117
X127127Y-38608
X127127Y-41148
X141351Y-38608
X141351Y-41148
X137795Y-38608
X137795Y-41148
X66167Y-37973
X66167Y-40513
X134239Y-32004
X134239Y-34544
X141351Y-32004
X141351Y-34544
X127127Y-32004
X127127Y-34544
X73279Y-44577
X73279Y-47117
X87503Y-37973
X87503Y-40513
X130683Y-32004
X130683Y-34544
X83947Y-44577
X83947Y-47117
X73279Y-31877
X73279Y-34417
X148463Y-44704
X148463Y-47244
X66167Y-44577
X66167Y-47117
X144907Y-44704
X144907Y-47244
X137795Y-44704
X137795Y-47244
X73279Y-37973
X73279Y-40513
X83947Y-37973
X83947Y-40513
X134239Y-38608
X134239Y-41148
X144907Y-38608
X144907Y-41148
X69723Y-44577
X69723Y-47117
X137795Y-32004
X137795Y-34544
X141351Y-44704
X141351Y-47244
X134239Y-44704
X134239Y-47244
X76835Y-31877
X76835Y-34417
X69723Y-31877
X69723Y-34417
X130683Y-44704
X130683Y-47244
X69723Y-37973
X69723Y-40513
T5
X54610Y-51689
X54610Y-59309
X57150Y-51689
X57150Y-59309
X59690Y-51689
X59690Y-59309
X62230Y-51689
X62230Y-59309
X64770Y-51689
X64770Y-59309
X67310Y-51689
X67310Y-59309
X69850Y-51689
X69850Y-59309
X72390Y-51689
X72390Y-59309
X74930Y-51689
X74930Y-59309
X77470Y-51689
X77470Y-59309
X162687Y-51816
X162687Y-59436
X165227Y-51816
X165227Y-59436
X167767Y-51816
X167767Y-59436
X170307Y-51816
X170307Y-59436
X172847Y-51816
X172847Y-59436
X175387Y-51816
X175387Y-59436
X177927Y-51816
X177927Y-59436
X180467Y-51816
X180467Y-59436
X183007Y-51816
X183007Y-59436
X185547Y-51816
X185547Y-59436
X29083Y-51689
X29083Y-59309
X31623Y-51689
X31623Y-59309
X34163Y-51689
X34163Y-59309
X36703Y-51689
X36703Y-59309
X39243Y-51689
X39243Y-59309
X41783Y-51689
X41783Y-59309
X44323Y-51689
X44323Y-59309
X46863Y-51689
X46863Y-59309
X49403Y-51689
X49403Y-59309
X51943Y-51689
X51943Y-59309
X137160Y-51816
X137160Y-59436
X139700Y-51816
X139700Y-59436
X142240Y-51816
X142240Y-59436
X144780Y-51816
X144780Y-59436
X147320Y-51816
X147320Y-59436
X149860Y-51816
X149860Y-59436
X152400Y-51816
X152400Y-59436
X154940Y-51816
X154940Y-59436
X157480Y-51816
X157480Y-59436
X160020Y-51816
X160020Y-59436
T6
X28956Y-31877
X28956Y-47117
X31496Y-31877
X31496Y-34417
X31496Y-47117
X34036Y-31877
X34036Y-47117
X36576Y-31877
X36576Y-34417
X36576Y-47117
X39116Y-31877
X39116Y-34417
X39116Y-47117
X41656Y-31877
X41656Y-34417
X41656Y-47117
X44196Y-31877
X44196Y-47117
X46736Y-31877
X46736Y-47117
X49276Y-31877
X49276Y-47117
X51816Y-31877
X51816Y-47117
X54356Y-31877
X54356Y-47117
X56896Y-31877
X56896Y-47117
X59436Y-31877
X59436Y-47117
X61976Y-31877
X61976Y-34417
X61976Y-36957
X61976Y-39497
X61976Y-42037
X61976Y-44577
X61976Y-47117
X152527Y-32004
X152527Y-34544
X152527Y-37084
X152527Y-39624
X152527Y-42164
X152527Y-44704
X152527Y-47244
X155067Y-32004
X155067Y-47244
X157607Y-32004
X157607Y-47244
X160147Y-32004
X160147Y-47244
X162687Y-32004
X162687Y-47244
X165227Y-32004
X165227Y-47244
X167767Y-32004
X167767Y-47244
X170307Y-32004
X170307Y-47244
X172847Y-32004
X172847Y-44704
X172847Y-47244
X175387Y-32004
X175387Y-44704
X175387Y-47244
X177927Y-32004
X177927Y-44704
X177927Y-47244
X180467Y-32004
X180467Y-47244
X183007Y-32004
X183007Y-44704
X183007Y-47244
X185547Y-32004
X185547Y-47244
T7
X141758Y-25273
X145258Y-25273
X148758Y-25273
X152258Y-25273
X155758Y-25273
X159258Y-25273
X162758Y-25273
X166258Y-25273
X169758Y-25273
X173258Y-25273
T8
X107315Y-35640
X107315Y-40640
X107315Y-52531
X107315Y-57531
T9
X92456Y-57912
X122428Y-57912
T10
X31623Y-25400
X183007Y-25654
T0
M30
