M48
;GenerationSoftware,Autodesk,EAGLE,9.7.0*%
;CreationDate,2023-08-29T15:22:37Z*%
FMAT,2
ICI,OFF
METRIC,TZ,000.000
T4C0.600
T3C0.660
T2C1.000
T1C3.200
%
G90
M71
T1
X-78105Y6350
X-66675Y6350
X57785Y6350
X69215Y6350
X-5715Y7036
X5715Y7036
X116205Y6350
X127635Y6350
T2
X-44894Y54038
X-44450Y15049
X22923Y35624
X108204Y56959
X108966Y14351
X118745Y15240
X122555Y12700
X120015Y12700
X117475Y12700
X-67945Y15240
X-69215Y12700
X-70485Y15240
X-73025Y15240
X-75565Y15240
X-71755Y12700
X-74295Y12700
X-76835Y12700
X67945Y15240
X66675Y12700
X65405Y15240
X62865Y15240
X60325Y15240
X64135Y12700
X61595Y12700
X59055Y12700
X4445Y15926
X3175Y13386
X1905Y15926
X-635Y15926
X-3175Y15926
X635Y13386
X-1905Y13386
X-4445Y13386
X126365Y15240
X125095Y12700
X123825Y15240
X121285Y15240
T3
X38100Y42990
X38100Y35750
X66040Y42990
X66040Y35750
X92710Y42990
X92710Y35750
T4
X-67310Y35560
X-67310Y33020
X-67310Y30480
X-78740Y38100
X-78740Y35560
X-78740Y33020
X-78740Y30480
X-22860Y41910
X-20320Y41910
X-22860Y46990
X-20320Y46990
X-22860Y52070
X-20320Y52070
X2540Y36830
X0Y41910
X2540Y41910
X0Y52070
X2540Y52070
X0Y36830
X38100Y31750
X68580Y31750
X66040Y31750
X95250Y31750
X92710Y31750
X40640Y31750
X-22860Y36830
X-20320Y36830
X0Y46990
X2540Y46990
X-67310Y38100
X118110Y38100
X120650Y38100
X123190Y38100
X125730Y38100
X118110Y33020
X120650Y33020
X123190Y33020
X125730Y33020
X-20320Y22860
X-20320Y25400
X-20320Y27940
X-20320Y30480
M30