M48
; DRILL file {KiCad 5.1.6} date Fri Aug 28 22:15:19 2020
; FORMAT={3:3/ absolute / metric / suppress leading zeros}
; #@! TF.CreationDate,2020-08-28T22:15:19-07:00
; #@! TF.GenerationSoftware,Kicad,Pcbnew,5.1.6
FMAT,2
METRIC,TZ
T1C0.400
T2C0.500
T3C0.550
T4C0.762
T5C0.800
T6C0.900
T7C1.000
T8C1.100
T9C1.300
T10C1.750
T11C3.200
%
G90
G05
T1
X32780Y-62379
X64802Y-61806
X67414Y-34159
X82295Y-52981
X99821Y-64469
X100032Y-66697
X107838Y-71380
X108815Y-33020
X111860Y-87490
X119139Y-73815
X128987Y-70329
X134942Y-31560
X143043Y-67777
X149007Y-66893
X155416Y-81483
X157510Y-80407
X162891Y-58265
X164115Y-73272
X165165Y-51840
X182697Y-55245
X190642Y-55245
X191763Y-59550
X194614Y-55245
X194801Y-66040
X202559Y-55245
X206526Y-55245
X207755Y-72598
X209268Y-55271
X210459Y-75251
X211079Y-55245
X211530Y-74625
X212108Y-76799
X214266Y-76157
T2
X113030Y-39370
X113030Y-43180
T4
X68148Y-65202
X68148Y-67742
X68148Y-70282
X68148Y-72822
X70688Y-65202
X70688Y-67742
X70688Y-70282
X70688Y-72822
X70739Y-60833
X73279Y-60833
X75338Y-77902
X75819Y-60833
X78359Y-60833
X78838Y-77902
X80899Y-60833
X82958Y-77902
X83439Y-60833
X85979Y-60833
X86458Y-77902
X88519Y-60833
X91059Y-60833
T5
X203200Y-58420
X203200Y-60960
X203200Y-63500
X203200Y-66040
X203200Y-68580
X203200Y-71120
X203200Y-73660
X203200Y-76200
X215900Y-58420
X215900Y-60960
X215900Y-63500
X215900Y-66040
X215900Y-68580
X215900Y-71120
X215900Y-73660
X215900Y-76200
X195580Y-44530
X195580Y-49530
X167640Y-44530
X167640Y-49530
X175260Y-58420
X175260Y-60960
X175260Y-63500
X175260Y-66040
X175260Y-68580
X175260Y-71120
X175260Y-73660
X175260Y-76200
X187960Y-58420
X187960Y-60960
X187960Y-63500
X187960Y-66040
X187960Y-68580
X187960Y-71120
X187960Y-73660
X187960Y-76200
X167640Y-69930
X167640Y-74930
X203200Y-33020
X203200Y-35560
X203200Y-38100
X203200Y-40640
X203200Y-43180
X203200Y-45720
X203200Y-48260
X203200Y-50800
X215900Y-33020
X215900Y-35560
X215900Y-38100
X215900Y-40640
X215900Y-43180
X215900Y-45720
X215900Y-48260
X215900Y-50800
X175260Y-33020
X175260Y-35560
X175260Y-38100
X175260Y-40640
X175260Y-43180
X175260Y-45720
X175260Y-48260
X175260Y-50800
X187960Y-33020
X187960Y-35560
X187960Y-38100
X187960Y-40640
X187960Y-43180
X187960Y-45720
X187960Y-48260
X187960Y-50800
X195580Y-69930
X195580Y-74930
T6
X74930Y-48260
X76200Y-45720
X77470Y-48260
X78740Y-45720
X80010Y-48260
X81280Y-45720
X82550Y-48260
X83820Y-45720
T8
X105410Y-33020
X105410Y-35560
X105410Y-38100
X105410Y-40640
X105410Y-43180
X105410Y-45720
X105410Y-48260
X105410Y-50800
X105410Y-53340
X105410Y-55880
X105410Y-58420
X105410Y-60960
X105410Y-63500
X105410Y-66040
X107950Y-66040
X110490Y-66040
X113030Y-66040
X115570Y-66040
X118110Y-35560
X118110Y-40640
X118110Y-43180
X118110Y-45720
X118110Y-66040
X120650Y-33020
X120650Y-35560
X120650Y-38100
X120650Y-40640
X120650Y-43180
X120650Y-45720
X120650Y-48260
X120650Y-50800
X120650Y-53340
X120650Y-55880
X120650Y-58420
X120650Y-60960
X120650Y-63500
X120650Y-66040
T9
X163830Y-33020
X163830Y-38100
T10
X82550Y-95250
X87630Y-95250
X21590Y-77470
X21590Y-82550
X21590Y-87630
X21590Y-92710
X21590Y-97790
X71120Y-95250
X76200Y-95250
X93980Y-95250
X99060Y-95250
X19050Y-33020
X24130Y-33020
X227330Y-85090
X227330Y-90170
X227330Y-95250
X227330Y-100330
X49530Y-33020
X54610Y-33020
X21590Y-43180
X21590Y-48260
X21590Y-53340
X21590Y-58420
X21590Y-63500
X21590Y-68580
X226060Y-36830
X231140Y-36830
X134620Y-60960
X139700Y-60960
X144780Y-60960
X149860Y-60960
X154940Y-60960
X34290Y-33020
X39370Y-33020
X185420Y-85090
X185420Y-90170
X185420Y-95250
X185420Y-100330
X165100Y-85090
X165100Y-90170
X165100Y-95250
X165100Y-100330
X105410Y-95250
X110490Y-95250
X207010Y-85090
X207010Y-90170
X207010Y-95250
X207010Y-100330
X53340Y-43180
X53340Y-48260
X53340Y-53340
X53340Y-58420
X53340Y-63500
X53340Y-68580
X53340Y-77470
X53340Y-82550
X53340Y-87630
X53340Y-92710
X53340Y-97790
T11
X34290Y-76200
X143510Y-76200
T3
G00X229870Y-62465
M15
G01X229870Y-60985
M16
G05
G00X229870Y-67290
M15
G01X229870Y-65810
M16
G05
G00X229870Y-72115
M15
G01X229870Y-70635
M16
G05
G00X145015Y-39370
M15
G01X143535Y-39370
M16
G05
G00X149840Y-39370
M15
G01X148360Y-39370
M16
G05
G00X154665Y-39370
M15
G01X153185Y-39370
M16
G05
G00X119655Y-95250
M15
G01X121135Y-95250
M16
G05
G00X124480Y-95250
M15
G01X125960Y-95250
M16
G05
G00X129305Y-95250
M15
G01X130785Y-95250
M16
G05
T7
G00X127380Y-36640
M15
G01X127380Y-38640
M16
G05
G00X133080Y-34640
M15
G01X131080Y-34640
M16
G05
G00X133080Y-40640
M15
G01X131080Y-40640
M16
G05
G00X141240Y-92710
M15
G01X143240Y-92710
M16
G05
G00X141240Y-98710
M15
G01X143240Y-98710
M16
G05
G00X146940Y-96710
M15
G01X146940Y-94710
M16
G05
G00X226060Y-50530
M15
G01X226060Y-48530
M16
G05
G00X230060Y-44830
M15
G01X228060Y-44830
M16
G05
G00X232060Y-50530
M15
G01X232060Y-48530
M16
G05
T11
G00X73660Y-37970
M15
G01X73660Y-40770
M16
G05
G00X86550Y-40770
M15
G01X86550Y-37970
M16
G05
T0
M30
