G04 #@! TF.GenerationSoftware,KiCad,Pcbnew,5.1.6*
G04 #@! TF.CreationDate,2020-08-28T22:15:26-07:00*
G04 #@! TF.ProjectId,controller,636f6e74-726f-46c6-9c65-722e6b696361,rev?*
G04 #@! TF.SameCoordinates,Original*
G04 #@! TF.FileFunction,Legend,Bot*
G04 #@! TF.FilePolarity,Positive*
%FSLAX46Y46*%
G04 Gerber Fmt 4.6, Leading zero omitted, Abs format (unit mm)*
G04 Created by KiCad (PCBNEW 5.1.6) date 2020-08-28 22:15:26*
%MOMM*%
%LPD*%
G01*
G04 APERTURE LIST*
%ADD10C,0.200000*%
%ADD11C,0.300000*%
G04 APERTURE END LIST*
D10*
X136680952Y-70184285D02*
X136776190Y-70279523D01*
X137061904Y-70374761D01*
X137252380Y-70374761D01*
X137538095Y-70279523D01*
X137728571Y-70089047D01*
X137823809Y-69898571D01*
X137919047Y-69517619D01*
X137919047Y-69231904D01*
X137823809Y-68850952D01*
X137728571Y-68660476D01*
X137538095Y-68470000D01*
X137252380Y-68374761D01*
X137061904Y-68374761D01*
X136776190Y-68470000D01*
X136680952Y-68565238D01*
X135538095Y-70374761D02*
X135728571Y-70279523D01*
X135823809Y-70184285D01*
X135919047Y-69993809D01*
X135919047Y-69422380D01*
X135823809Y-69231904D01*
X135728571Y-69136666D01*
X135538095Y-69041428D01*
X135252380Y-69041428D01*
X135061904Y-69136666D01*
X134966666Y-69231904D01*
X134871428Y-69422380D01*
X134871428Y-69993809D01*
X134966666Y-70184285D01*
X135061904Y-70279523D01*
X135252380Y-70374761D01*
X135538095Y-70374761D01*
X134014285Y-69041428D02*
X134014285Y-70374761D01*
X134014285Y-69231904D02*
X133919047Y-69136666D01*
X133728571Y-69041428D01*
X133442857Y-69041428D01*
X133252380Y-69136666D01*
X133157142Y-69327142D01*
X133157142Y-70374761D01*
X132490476Y-69041428D02*
X131728571Y-69041428D01*
X132204761Y-68374761D02*
X132204761Y-70089047D01*
X132109523Y-70279523D01*
X131919047Y-70374761D01*
X131728571Y-70374761D01*
X131061904Y-70374761D02*
X131061904Y-69041428D01*
X131061904Y-69422380D02*
X130966666Y-69231904D01*
X130871428Y-69136666D01*
X130680952Y-69041428D01*
X130490476Y-69041428D01*
X129538095Y-70374761D02*
X129728571Y-70279523D01*
X129823809Y-70184285D01*
X129919047Y-69993809D01*
X129919047Y-69422380D01*
X129823809Y-69231904D01*
X129728571Y-69136666D01*
X129538095Y-69041428D01*
X129252380Y-69041428D01*
X129061904Y-69136666D01*
X128966666Y-69231904D01*
X128871428Y-69422380D01*
X128871428Y-69993809D01*
X128966666Y-70184285D01*
X129061904Y-70279523D01*
X129252380Y-70374761D01*
X129538095Y-70374761D01*
X127728571Y-70374761D02*
X127919047Y-70279523D01*
X128014285Y-70089047D01*
X128014285Y-68374761D01*
X126680952Y-70374761D02*
X126871428Y-70279523D01*
X126966666Y-70089047D01*
X126966666Y-68374761D01*
X125157142Y-70279523D02*
X125347619Y-70374761D01*
X125728571Y-70374761D01*
X125919047Y-70279523D01*
X126014285Y-70089047D01*
X126014285Y-69327142D01*
X125919047Y-69136666D01*
X125728571Y-69041428D01*
X125347619Y-69041428D01*
X125157142Y-69136666D01*
X125061904Y-69327142D01*
X125061904Y-69517619D01*
X126014285Y-69708095D01*
X124204761Y-70374761D02*
X124204761Y-69041428D01*
X124204761Y-69422380D02*
X124109523Y-69231904D01*
X124014285Y-69136666D01*
X123823809Y-69041428D01*
X123633333Y-69041428D01*
X121157142Y-70374761D02*
X121347619Y-70279523D01*
X121442857Y-70184285D01*
X121538095Y-69993809D01*
X121538095Y-69422380D01*
X121442857Y-69231904D01*
X121347619Y-69136666D01*
X121157142Y-69041428D01*
X120871428Y-69041428D01*
X120680952Y-69136666D01*
X120585714Y-69231904D01*
X120490476Y-69422380D01*
X120490476Y-69993809D01*
X120585714Y-70184285D01*
X120680952Y-70279523D01*
X120871428Y-70374761D01*
X121157142Y-70374761D01*
X118776190Y-69041428D02*
X118776190Y-70374761D01*
X119633333Y-69041428D02*
X119633333Y-70089047D01*
X119538095Y-70279523D01*
X119347619Y-70374761D01*
X119061904Y-70374761D01*
X118871428Y-70279523D01*
X118776190Y-70184285D01*
X118109523Y-69041428D02*
X117347619Y-69041428D01*
X117823809Y-68374761D02*
X117823809Y-70089047D01*
X117728571Y-70279523D01*
X117538095Y-70374761D01*
X117347619Y-70374761D01*
X133728571Y-73574761D02*
X134871428Y-73574761D01*
X134300000Y-73574761D02*
X134300000Y-71574761D01*
X134490476Y-71860476D01*
X134680952Y-72050952D01*
X134871428Y-72146190D01*
X132871428Y-73384285D02*
X132776190Y-73479523D01*
X132871428Y-73574761D01*
X132966666Y-73479523D01*
X132871428Y-73384285D01*
X132871428Y-73574761D01*
X130109523Y-73574761D02*
X130300000Y-73479523D01*
X130395238Y-73289047D01*
X130395238Y-71574761D01*
X128585714Y-73479523D02*
X128776190Y-73574761D01*
X129157142Y-73574761D01*
X129347619Y-73479523D01*
X129442857Y-73289047D01*
X129442857Y-72527142D01*
X129347619Y-72336666D01*
X129157142Y-72241428D01*
X128776190Y-72241428D01*
X128585714Y-72336666D01*
X128490476Y-72527142D01*
X128490476Y-72717619D01*
X129442857Y-72908095D01*
X127919047Y-72241428D02*
X127157142Y-72241428D01*
X127633333Y-73574761D02*
X127633333Y-71860476D01*
X127538095Y-71670000D01*
X127347619Y-71574761D01*
X127157142Y-71574761D01*
X126776190Y-72241428D02*
X126014285Y-72241428D01*
X126490476Y-71574761D02*
X126490476Y-73289047D01*
X126395238Y-73479523D01*
X126204761Y-73574761D01*
X126014285Y-73574761D01*
X123538095Y-73574761D02*
X123728571Y-73479523D01*
X123823809Y-73289047D01*
X123823809Y-71574761D01*
X122776190Y-73574761D02*
X122776190Y-72241428D01*
X122776190Y-71574761D02*
X122871428Y-71670000D01*
X122776190Y-71765238D01*
X122680952Y-71670000D01*
X122776190Y-71574761D01*
X122776190Y-71765238D01*
X120966666Y-73479523D02*
X121157142Y-73574761D01*
X121538095Y-73574761D01*
X121728571Y-73479523D01*
X121823809Y-73384285D01*
X121919047Y-73193809D01*
X121919047Y-72622380D01*
X121823809Y-72431904D01*
X121728571Y-72336666D01*
X121538095Y-72241428D01*
X121157142Y-72241428D01*
X120966666Y-72336666D01*
X120109523Y-73574761D02*
X120109523Y-71574761D01*
X119919047Y-72812857D02*
X119347619Y-73574761D01*
X119347619Y-72241428D02*
X120109523Y-73003333D01*
X134871428Y-74965238D02*
X134776190Y-74870000D01*
X134585714Y-74774761D01*
X134109523Y-74774761D01*
X133919047Y-74870000D01*
X133823809Y-74965238D01*
X133728571Y-75155714D01*
X133728571Y-75346190D01*
X133823809Y-75631904D01*
X134966666Y-76774761D01*
X133728571Y-76774761D01*
X132871428Y-76584285D02*
X132776190Y-76679523D01*
X132871428Y-76774761D01*
X132966666Y-76679523D01*
X132871428Y-76584285D01*
X132871428Y-76774761D01*
X130395238Y-76774761D02*
X130395238Y-75441428D01*
X130395238Y-75822380D02*
X130300000Y-75631904D01*
X130204761Y-75536666D01*
X130014285Y-75441428D01*
X129823809Y-75441428D01*
X129157142Y-76774761D02*
X129157142Y-75441428D01*
X129157142Y-74774761D02*
X129252380Y-74870000D01*
X129157142Y-74965238D01*
X129061904Y-74870000D01*
X129157142Y-74774761D01*
X129157142Y-74965238D01*
X127347619Y-75441428D02*
X127347619Y-77060476D01*
X127442857Y-77250952D01*
X127538095Y-77346190D01*
X127728571Y-77441428D01*
X128014285Y-77441428D01*
X128204761Y-77346190D01*
X127347619Y-76679523D02*
X127538095Y-76774761D01*
X127919047Y-76774761D01*
X128109523Y-76679523D01*
X128204761Y-76584285D01*
X128300000Y-76393809D01*
X128300000Y-75822380D01*
X128204761Y-75631904D01*
X128109523Y-75536666D01*
X127919047Y-75441428D01*
X127538095Y-75441428D01*
X127347619Y-75536666D01*
X126395238Y-76774761D02*
X126395238Y-74774761D01*
X125538095Y-76774761D02*
X125538095Y-75727142D01*
X125633333Y-75536666D01*
X125823809Y-75441428D01*
X126109523Y-75441428D01*
X126300000Y-75536666D01*
X126395238Y-75631904D01*
X124871428Y-75441428D02*
X124109523Y-75441428D01*
X124585714Y-74774761D02*
X124585714Y-76489047D01*
X124490476Y-76679523D01*
X124300000Y-76774761D01*
X124109523Y-76774761D01*
X121633333Y-76774761D02*
X121823809Y-76679523D01*
X121919047Y-76489047D01*
X121919047Y-74774761D01*
X120871428Y-76774761D02*
X120871428Y-75441428D01*
X120871428Y-74774761D02*
X120966666Y-74870000D01*
X120871428Y-74965238D01*
X120776190Y-74870000D01*
X120871428Y-74774761D01*
X120871428Y-74965238D01*
X119061904Y-76679523D02*
X119252380Y-76774761D01*
X119633333Y-76774761D01*
X119823809Y-76679523D01*
X119919047Y-76584285D01*
X120014285Y-76393809D01*
X120014285Y-75822380D01*
X119919047Y-75631904D01*
X119823809Y-75536666D01*
X119633333Y-75441428D01*
X119252380Y-75441428D01*
X119061904Y-75536666D01*
X118204761Y-76774761D02*
X118204761Y-74774761D01*
X118014285Y-76012857D02*
X117442857Y-76774761D01*
X117442857Y-75441428D02*
X118204761Y-76203333D01*
X134966666Y-77974761D02*
X133728571Y-77974761D01*
X134395238Y-78736666D01*
X134109523Y-78736666D01*
X133919047Y-78831904D01*
X133823809Y-78927142D01*
X133728571Y-79117619D01*
X133728571Y-79593809D01*
X133823809Y-79784285D01*
X133919047Y-79879523D01*
X134109523Y-79974761D01*
X134680952Y-79974761D01*
X134871428Y-79879523D01*
X134966666Y-79784285D01*
X132871428Y-79784285D02*
X132776190Y-79879523D01*
X132871428Y-79974761D01*
X132966666Y-79879523D01*
X132871428Y-79784285D01*
X132871428Y-79974761D01*
X130490476Y-79879523D02*
X130300000Y-79974761D01*
X129919047Y-79974761D01*
X129728571Y-79879523D01*
X129633333Y-79689047D01*
X129633333Y-79593809D01*
X129728571Y-79403333D01*
X129919047Y-79308095D01*
X130204761Y-79308095D01*
X130395238Y-79212857D01*
X130490476Y-79022380D01*
X130490476Y-78927142D01*
X130395238Y-78736666D01*
X130204761Y-78641428D01*
X129919047Y-78641428D01*
X129728571Y-78736666D01*
X129061904Y-78641428D02*
X128300000Y-78641428D01*
X128776190Y-77974761D02*
X128776190Y-79689047D01*
X128680952Y-79879523D01*
X128490476Y-79974761D01*
X128300000Y-79974761D01*
X127633333Y-79974761D02*
X127633333Y-78641428D01*
X127633333Y-77974761D02*
X127728571Y-78070000D01*
X127633333Y-78165238D01*
X127538095Y-78070000D01*
X127633333Y-77974761D01*
X127633333Y-78165238D01*
X126680952Y-79974761D02*
X126680952Y-78641428D01*
X126680952Y-78831904D02*
X126585714Y-78736666D01*
X126395238Y-78641428D01*
X126109523Y-78641428D01*
X125919047Y-78736666D01*
X125823809Y-78927142D01*
X125823809Y-79974761D01*
X125823809Y-78927142D02*
X125728571Y-78736666D01*
X125538095Y-78641428D01*
X125252380Y-78641428D01*
X125061904Y-78736666D01*
X124966666Y-78927142D01*
X124966666Y-79974761D01*
X122109523Y-77974761D02*
X121728571Y-77974761D01*
X121538095Y-78070000D01*
X121347619Y-78260476D01*
X121252380Y-78641428D01*
X121252380Y-79308095D01*
X121347619Y-79689047D01*
X121538095Y-79879523D01*
X121728571Y-79974761D01*
X122109523Y-79974761D01*
X122300000Y-79879523D01*
X122490476Y-79689047D01*
X122585714Y-79308095D01*
X122585714Y-78641428D01*
X122490476Y-78260476D01*
X122300000Y-78070000D01*
X122109523Y-77974761D01*
X120395238Y-79974761D02*
X120395238Y-77974761D01*
X119252380Y-79974761D01*
X119252380Y-77974761D01*
X133919047Y-81841428D02*
X133919047Y-83174761D01*
X134395238Y-81079523D02*
X134871428Y-82508095D01*
X133633333Y-82508095D01*
X132871428Y-82984285D02*
X132776190Y-83079523D01*
X132871428Y-83174761D01*
X132966666Y-83079523D01*
X132871428Y-82984285D01*
X132871428Y-83174761D01*
X130680952Y-81841428D02*
X129919047Y-81841428D01*
X130395238Y-81174761D02*
X130395238Y-82889047D01*
X130300000Y-83079523D01*
X130109523Y-83174761D01*
X129919047Y-83174761D01*
X129252380Y-83174761D02*
X129252380Y-81841428D01*
X129252380Y-82222380D02*
X129157142Y-82031904D01*
X129061904Y-81936666D01*
X128871428Y-81841428D01*
X128680952Y-81841428D01*
X128014285Y-83174761D02*
X128014285Y-81841428D01*
X128014285Y-81174761D02*
X128109523Y-81270000D01*
X128014285Y-81365238D01*
X127919047Y-81270000D01*
X128014285Y-81174761D01*
X128014285Y-81365238D01*
X126204761Y-83174761D02*
X126204761Y-82127142D01*
X126300000Y-81936666D01*
X126490476Y-81841428D01*
X126871428Y-81841428D01*
X127061904Y-81936666D01*
X126204761Y-83079523D02*
X126395238Y-83174761D01*
X126871428Y-83174761D01*
X127061904Y-83079523D01*
X127157142Y-82889047D01*
X127157142Y-82698571D01*
X127061904Y-82508095D01*
X126871428Y-82412857D01*
X126395238Y-82412857D01*
X126204761Y-82317619D01*
X124966666Y-83174761D02*
X125157142Y-83079523D01*
X125252380Y-82889047D01*
X125252380Y-81174761D01*
X122300000Y-81174761D02*
X121919047Y-81174761D01*
X121728571Y-81270000D01*
X121538095Y-81460476D01*
X121442857Y-81841428D01*
X121442857Y-82508095D01*
X121538095Y-82889047D01*
X121728571Y-83079523D01*
X121919047Y-83174761D01*
X122300000Y-83174761D01*
X122490476Y-83079523D01*
X122680952Y-82889047D01*
X122776190Y-82508095D01*
X122776190Y-81841428D01*
X122680952Y-81460476D01*
X122490476Y-81270000D01*
X122300000Y-81174761D01*
X120585714Y-83174761D02*
X120585714Y-81174761D01*
X119442857Y-83174761D01*
X119442857Y-81174761D01*
X133823809Y-84374761D02*
X134776190Y-84374761D01*
X134871428Y-85327142D01*
X134776190Y-85231904D01*
X134585714Y-85136666D01*
X134109523Y-85136666D01*
X133919047Y-85231904D01*
X133823809Y-85327142D01*
X133728571Y-85517619D01*
X133728571Y-85993809D01*
X133823809Y-86184285D01*
X133919047Y-86279523D01*
X134109523Y-86374761D01*
X134585714Y-86374761D01*
X134776190Y-86279523D01*
X134871428Y-86184285D01*
X132871428Y-86184285D02*
X132776190Y-86279523D01*
X132871428Y-86374761D01*
X132966666Y-86279523D01*
X132871428Y-86184285D01*
X132871428Y-86374761D01*
X129633333Y-86279523D02*
X129823809Y-86374761D01*
X130204761Y-86374761D01*
X130395238Y-86279523D01*
X130490476Y-86089047D01*
X130490476Y-85327142D01*
X130395238Y-85136666D01*
X130204761Y-85041428D01*
X129823809Y-85041428D01*
X129633333Y-85136666D01*
X129538095Y-85327142D01*
X129538095Y-85517619D01*
X130490476Y-85708095D01*
X128871428Y-86374761D02*
X127823809Y-85041428D01*
X128871428Y-85041428D02*
X127823809Y-86374761D01*
X127061904Y-85041428D02*
X127061904Y-87041428D01*
X127061904Y-85136666D02*
X126871428Y-85041428D01*
X126490476Y-85041428D01*
X126300000Y-85136666D01*
X126204761Y-85231904D01*
X126109523Y-85422380D01*
X126109523Y-85993809D01*
X126204761Y-86184285D01*
X126300000Y-86279523D01*
X126490476Y-86374761D01*
X126871428Y-86374761D01*
X127061904Y-86279523D01*
X124966666Y-86374761D02*
X125157142Y-86279523D01*
X125252380Y-86184285D01*
X125347619Y-85993809D01*
X125347619Y-85422380D01*
X125252380Y-85231904D01*
X125157142Y-85136666D01*
X124966666Y-85041428D01*
X124680952Y-85041428D01*
X124490476Y-85136666D01*
X124395238Y-85231904D01*
X124300000Y-85422380D01*
X124300000Y-85993809D01*
X124395238Y-86184285D01*
X124490476Y-86279523D01*
X124680952Y-86374761D01*
X124966666Y-86374761D01*
X123538095Y-86279523D02*
X123347619Y-86374761D01*
X122966666Y-86374761D01*
X122776190Y-86279523D01*
X122680952Y-86089047D01*
X122680952Y-85993809D01*
X122776190Y-85803333D01*
X122966666Y-85708095D01*
X123252380Y-85708095D01*
X123442857Y-85612857D01*
X123538095Y-85422380D01*
X123538095Y-85327142D01*
X123442857Y-85136666D01*
X123252380Y-85041428D01*
X122966666Y-85041428D01*
X122776190Y-85136666D01*
X120966666Y-85041428D02*
X120966666Y-86374761D01*
X121823809Y-85041428D02*
X121823809Y-86089047D01*
X121728571Y-86279523D01*
X121538095Y-86374761D01*
X121252380Y-86374761D01*
X121061904Y-86279523D01*
X120966666Y-86184285D01*
X120014285Y-86374761D02*
X120014285Y-85041428D01*
X120014285Y-85422380D02*
X119919047Y-85231904D01*
X119823809Y-85136666D01*
X119633333Y-85041428D01*
X119442857Y-85041428D01*
X118014285Y-86279523D02*
X118204761Y-86374761D01*
X118585714Y-86374761D01*
X118776190Y-86279523D01*
X118871428Y-86089047D01*
X118871428Y-85327142D01*
X118776190Y-85136666D01*
X118585714Y-85041428D01*
X118204761Y-85041428D01*
X118014285Y-85136666D01*
X117919047Y-85327142D01*
X117919047Y-85517619D01*
X118871428Y-85708095D01*
X115823809Y-85041428D02*
X115061904Y-85041428D01*
X115538095Y-84374761D02*
X115538095Y-86089047D01*
X115442857Y-86279523D01*
X115252380Y-86374761D01*
X115061904Y-86374761D01*
X114395238Y-86374761D02*
X114395238Y-85041428D01*
X114395238Y-85422380D02*
X114300000Y-85231904D01*
X114204761Y-85136666D01*
X114014285Y-85041428D01*
X113823809Y-85041428D01*
X113157142Y-86374761D02*
X113157142Y-85041428D01*
X113157142Y-84374761D02*
X113252380Y-84470000D01*
X113157142Y-84565238D01*
X113061904Y-84470000D01*
X113157142Y-84374761D01*
X113157142Y-84565238D01*
X111347619Y-85041428D02*
X111347619Y-86660476D01*
X111442857Y-86850952D01*
X111538095Y-86946190D01*
X111728571Y-87041428D01*
X112014285Y-87041428D01*
X112204761Y-86946190D01*
X111347619Y-86279523D02*
X111538095Y-86374761D01*
X111919047Y-86374761D01*
X112109523Y-86279523D01*
X112204761Y-86184285D01*
X112300000Y-85993809D01*
X112300000Y-85422380D01*
X112204761Y-85231904D01*
X112109523Y-85136666D01*
X111919047Y-85041428D01*
X111538095Y-85041428D01*
X111347619Y-85136666D01*
X109538095Y-85041428D02*
X109538095Y-86660476D01*
X109633333Y-86850952D01*
X109728571Y-86946190D01*
X109919047Y-87041428D01*
X110204761Y-87041428D01*
X110395238Y-86946190D01*
X109538095Y-86279523D02*
X109728571Y-86374761D01*
X110109523Y-86374761D01*
X110300000Y-86279523D01*
X110395238Y-86184285D01*
X110490476Y-85993809D01*
X110490476Y-85422380D01*
X110395238Y-85231904D01*
X110300000Y-85136666D01*
X110109523Y-85041428D01*
X109728571Y-85041428D01*
X109538095Y-85136666D01*
X107823809Y-86279523D02*
X108014285Y-86374761D01*
X108395238Y-86374761D01*
X108585714Y-86279523D01*
X108680952Y-86089047D01*
X108680952Y-85327142D01*
X108585714Y-85136666D01*
X108395238Y-85041428D01*
X108014285Y-85041428D01*
X107823809Y-85136666D01*
X107728571Y-85327142D01*
X107728571Y-85517619D01*
X108680952Y-85708095D01*
X106871428Y-86374761D02*
X106871428Y-85041428D01*
X106871428Y-85422380D02*
X106776190Y-85231904D01*
X106680952Y-85136666D01*
X106490476Y-85041428D01*
X106300000Y-85041428D01*
D11*
X50224047Y-45519523D02*
X49938333Y-45614761D01*
X49462142Y-45614761D01*
X49271666Y-45519523D01*
X49176428Y-45424285D01*
X49081190Y-45233809D01*
X49081190Y-45043333D01*
X49176428Y-44852857D01*
X49271666Y-44757619D01*
X49462142Y-44662380D01*
X49843095Y-44567142D01*
X50033571Y-44471904D01*
X50128809Y-44376666D01*
X50224047Y-44186190D01*
X50224047Y-43995714D01*
X50128809Y-43805238D01*
X50033571Y-43710000D01*
X49843095Y-43614761D01*
X49366904Y-43614761D01*
X49081190Y-43710000D01*
X48224047Y-45614761D02*
X48224047Y-43614761D01*
X47462142Y-43614761D01*
X47271666Y-43710000D01*
X47176428Y-43805238D01*
X47081190Y-43995714D01*
X47081190Y-44281428D01*
X47176428Y-44471904D01*
X47271666Y-44567142D01*
X47462142Y-44662380D01*
X48224047Y-44662380D01*
X45843095Y-43614761D02*
X45462142Y-43614761D01*
X45271666Y-43710000D01*
X45081190Y-43900476D01*
X44985952Y-44281428D01*
X44985952Y-44948095D01*
X45081190Y-45329047D01*
X45271666Y-45519523D01*
X45462142Y-45614761D01*
X45843095Y-45614761D01*
X46033571Y-45519523D01*
X46224047Y-45329047D01*
X46319285Y-44948095D01*
X46319285Y-44281428D01*
X46224047Y-43900476D01*
X46033571Y-43710000D01*
X45843095Y-43614761D01*
X44128809Y-43614761D02*
X44128809Y-45233809D01*
X44033571Y-45424285D01*
X43938333Y-45519523D01*
X43747857Y-45614761D01*
X43366904Y-45614761D01*
X43176428Y-45519523D01*
X43081190Y-45424285D01*
X42985952Y-45233809D01*
X42985952Y-43614761D01*
X42319285Y-43614761D02*
X41176428Y-43614761D01*
X41747857Y-45614761D02*
X41747857Y-43614761D01*
X39081190Y-45519523D02*
X38795476Y-45614761D01*
X38319285Y-45614761D01*
X38128809Y-45519523D01*
X38033571Y-45424285D01*
X37938333Y-45233809D01*
X37938333Y-45043333D01*
X38033571Y-44852857D01*
X38128809Y-44757619D01*
X38319285Y-44662380D01*
X38700238Y-44567142D01*
X38890714Y-44471904D01*
X38985952Y-44376666D01*
X39081190Y-44186190D01*
X39081190Y-43995714D01*
X38985952Y-43805238D01*
X38890714Y-43710000D01*
X38700238Y-43614761D01*
X38224047Y-43614761D01*
X37938333Y-43710000D01*
X37366904Y-43614761D02*
X36224047Y-43614761D01*
X36795476Y-45614761D02*
X36795476Y-43614761D01*
X35557380Y-45614761D02*
X35557380Y-43614761D01*
X34605000Y-45614761D02*
X34605000Y-43614761D01*
X33938333Y-45043333D01*
X33271666Y-43614761D01*
X33271666Y-45614761D01*
X42985952Y-48914761D02*
X44128809Y-48914761D01*
X43557380Y-48914761D02*
X43557380Y-46914761D01*
X43747857Y-47200476D01*
X43938333Y-47390952D01*
X44128809Y-47486190D01*
X42128809Y-48724285D02*
X42033571Y-48819523D01*
X42128809Y-48914761D01*
X42224047Y-48819523D01*
X42128809Y-48724285D01*
X42128809Y-48914761D01*
X39747857Y-48819523D02*
X39557380Y-48914761D01*
X39176428Y-48914761D01*
X38985952Y-48819523D01*
X38890714Y-48629047D01*
X38890714Y-48533809D01*
X38985952Y-48343333D01*
X39176428Y-48248095D01*
X39462142Y-48248095D01*
X39652619Y-48152857D01*
X39747857Y-47962380D01*
X39747857Y-47867142D01*
X39652619Y-47676666D01*
X39462142Y-47581428D01*
X39176428Y-47581428D01*
X38985952Y-47676666D01*
X38033571Y-47581428D02*
X38033571Y-49581428D01*
X38033571Y-47676666D02*
X37843095Y-47581428D01*
X37462142Y-47581428D01*
X37271666Y-47676666D01*
X37176428Y-47771904D01*
X37081190Y-47962380D01*
X37081190Y-48533809D01*
X37176428Y-48724285D01*
X37271666Y-48819523D01*
X37462142Y-48914761D01*
X37843095Y-48914761D01*
X38033571Y-48819523D01*
X35938333Y-48914761D02*
X36128809Y-48819523D01*
X36224047Y-48724285D01*
X36319285Y-48533809D01*
X36319285Y-47962380D01*
X36224047Y-47771904D01*
X36128809Y-47676666D01*
X35938333Y-47581428D01*
X35652619Y-47581428D01*
X35462142Y-47676666D01*
X35366904Y-47771904D01*
X35271666Y-47962380D01*
X35271666Y-48533809D01*
X35366904Y-48724285D01*
X35462142Y-48819523D01*
X35652619Y-48914761D01*
X35938333Y-48914761D01*
X33557380Y-47581428D02*
X33557380Y-48914761D01*
X34414523Y-47581428D02*
X34414523Y-48629047D01*
X34319285Y-48819523D01*
X34128809Y-48914761D01*
X33843095Y-48914761D01*
X33652619Y-48819523D01*
X33557380Y-48724285D01*
X32890714Y-47581428D02*
X32128809Y-47581428D01*
X32605000Y-46914761D02*
X32605000Y-48629047D01*
X32509761Y-48819523D01*
X32319285Y-48914761D01*
X32128809Y-48914761D01*
X29652619Y-48914761D02*
X29843095Y-48819523D01*
X29938333Y-48629047D01*
X29938333Y-46914761D01*
X28890714Y-48914761D02*
X28890714Y-47581428D01*
X28890714Y-46914761D02*
X28985952Y-47010000D01*
X28890714Y-47105238D01*
X28795476Y-47010000D01*
X28890714Y-46914761D01*
X28890714Y-47105238D01*
X27081190Y-48819523D02*
X27271666Y-48914761D01*
X27652619Y-48914761D01*
X27843095Y-48819523D01*
X27938333Y-48724285D01*
X28033571Y-48533809D01*
X28033571Y-47962380D01*
X27938333Y-47771904D01*
X27843095Y-47676666D01*
X27652619Y-47581428D01*
X27271666Y-47581428D01*
X27081190Y-47676666D01*
X26224047Y-48914761D02*
X26224047Y-46914761D01*
X26033571Y-48152857D02*
X25462142Y-48914761D01*
X25462142Y-47581428D02*
X26224047Y-48343333D01*
X44128809Y-50405238D02*
X44033571Y-50310000D01*
X43843095Y-50214761D01*
X43366904Y-50214761D01*
X43176428Y-50310000D01*
X43081190Y-50405238D01*
X42985952Y-50595714D01*
X42985952Y-50786190D01*
X43081190Y-51071904D01*
X44224047Y-52214761D01*
X42985952Y-52214761D01*
X42128809Y-52024285D02*
X42033571Y-52119523D01*
X42128809Y-52214761D01*
X42224047Y-52119523D01*
X42128809Y-52024285D01*
X42128809Y-52214761D01*
X38795476Y-52214761D02*
X38795476Y-51167142D01*
X38890714Y-50976666D01*
X39081190Y-50881428D01*
X39462142Y-50881428D01*
X39652619Y-50976666D01*
X38795476Y-52119523D02*
X38985952Y-52214761D01*
X39462142Y-52214761D01*
X39652619Y-52119523D01*
X39747857Y-51929047D01*
X39747857Y-51738571D01*
X39652619Y-51548095D01*
X39462142Y-51452857D01*
X38985952Y-51452857D01*
X38795476Y-51357619D01*
X36985952Y-50881428D02*
X36985952Y-52214761D01*
X37843095Y-50881428D02*
X37843095Y-51929047D01*
X37747857Y-52119523D01*
X37557380Y-52214761D01*
X37271666Y-52214761D01*
X37081190Y-52119523D01*
X36985952Y-52024285D01*
X35176428Y-52214761D02*
X35176428Y-50214761D01*
X35176428Y-52119523D02*
X35366904Y-52214761D01*
X35747857Y-52214761D01*
X35938333Y-52119523D01*
X36033571Y-52024285D01*
X36128809Y-51833809D01*
X36128809Y-51262380D01*
X36033571Y-51071904D01*
X35938333Y-50976666D01*
X35747857Y-50881428D01*
X35366904Y-50881428D01*
X35176428Y-50976666D01*
X34224047Y-52214761D02*
X34224047Y-50881428D01*
X34224047Y-50214761D02*
X34319285Y-50310000D01*
X34224047Y-50405238D01*
X34128809Y-50310000D01*
X34224047Y-50214761D01*
X34224047Y-50405238D01*
X32985952Y-52214761D02*
X33176428Y-52119523D01*
X33271666Y-52024285D01*
X33366904Y-51833809D01*
X33366904Y-51262380D01*
X33271666Y-51071904D01*
X33176428Y-50976666D01*
X32985952Y-50881428D01*
X32700238Y-50881428D01*
X32509761Y-50976666D01*
X32414523Y-51071904D01*
X32319285Y-51262380D01*
X32319285Y-51833809D01*
X32414523Y-52024285D01*
X32509761Y-52119523D01*
X32700238Y-52214761D01*
X32985952Y-52214761D01*
X29938333Y-51452857D02*
X28414523Y-51452857D01*
X29176428Y-52214761D02*
X29176428Y-50690952D01*
X44224047Y-53514761D02*
X42985952Y-53514761D01*
X43652619Y-54276666D01*
X43366904Y-54276666D01*
X43176428Y-54371904D01*
X43081190Y-54467142D01*
X42985952Y-54657619D01*
X42985952Y-55133809D01*
X43081190Y-55324285D01*
X43176428Y-55419523D01*
X43366904Y-55514761D01*
X43938333Y-55514761D01*
X44128809Y-55419523D01*
X44224047Y-55324285D01*
X42128809Y-55324285D02*
X42033571Y-55419523D01*
X42128809Y-55514761D01*
X42224047Y-55419523D01*
X42128809Y-55324285D01*
X42128809Y-55514761D01*
X38795476Y-55514761D02*
X38795476Y-54467142D01*
X38890714Y-54276666D01*
X39081190Y-54181428D01*
X39462142Y-54181428D01*
X39652619Y-54276666D01*
X38795476Y-55419523D02*
X38985952Y-55514761D01*
X39462142Y-55514761D01*
X39652619Y-55419523D01*
X39747857Y-55229047D01*
X39747857Y-55038571D01*
X39652619Y-54848095D01*
X39462142Y-54752857D01*
X38985952Y-54752857D01*
X38795476Y-54657619D01*
X36985952Y-54181428D02*
X36985952Y-55514761D01*
X37843095Y-54181428D02*
X37843095Y-55229047D01*
X37747857Y-55419523D01*
X37557380Y-55514761D01*
X37271666Y-55514761D01*
X37081190Y-55419523D01*
X36985952Y-55324285D01*
X35176428Y-55514761D02*
X35176428Y-53514761D01*
X35176428Y-55419523D02*
X35366904Y-55514761D01*
X35747857Y-55514761D01*
X35938333Y-55419523D01*
X36033571Y-55324285D01*
X36128809Y-55133809D01*
X36128809Y-54562380D01*
X36033571Y-54371904D01*
X35938333Y-54276666D01*
X35747857Y-54181428D01*
X35366904Y-54181428D01*
X35176428Y-54276666D01*
X34224047Y-55514761D02*
X34224047Y-54181428D01*
X34224047Y-53514761D02*
X34319285Y-53610000D01*
X34224047Y-53705238D01*
X34128809Y-53610000D01*
X34224047Y-53514761D01*
X34224047Y-53705238D01*
X32985952Y-55514761D02*
X33176428Y-55419523D01*
X33271666Y-55324285D01*
X33366904Y-55133809D01*
X33366904Y-54562380D01*
X33271666Y-54371904D01*
X33176428Y-54276666D01*
X32985952Y-54181428D01*
X32700238Y-54181428D01*
X32509761Y-54276666D01*
X32414523Y-54371904D01*
X32319285Y-54562380D01*
X32319285Y-55133809D01*
X32414523Y-55324285D01*
X32509761Y-55419523D01*
X32700238Y-55514761D01*
X32985952Y-55514761D01*
X29938333Y-54752857D02*
X28414523Y-54752857D01*
X43176428Y-57481428D02*
X43176428Y-58814761D01*
X43652619Y-56719523D02*
X44128809Y-58148095D01*
X42890714Y-58148095D01*
X42128809Y-58624285D02*
X42033571Y-58719523D01*
X42128809Y-58814761D01*
X42224047Y-58719523D01*
X42128809Y-58624285D01*
X42128809Y-58814761D01*
X39652619Y-58814761D02*
X39652619Y-57481428D01*
X39652619Y-57671904D02*
X39557380Y-57576666D01*
X39366904Y-57481428D01*
X39081190Y-57481428D01*
X38890714Y-57576666D01*
X38795476Y-57767142D01*
X38795476Y-58814761D01*
X38795476Y-57767142D02*
X38700238Y-57576666D01*
X38509761Y-57481428D01*
X38224047Y-57481428D01*
X38033571Y-57576666D01*
X37938333Y-57767142D01*
X37938333Y-58814761D01*
X36700238Y-58814761D02*
X36890714Y-58719523D01*
X36985952Y-58624285D01*
X37081190Y-58433809D01*
X37081190Y-57862380D01*
X36985952Y-57671904D01*
X36890714Y-57576666D01*
X36700238Y-57481428D01*
X36414523Y-57481428D01*
X36224047Y-57576666D01*
X36128809Y-57671904D01*
X36033571Y-57862380D01*
X36033571Y-58433809D01*
X36128809Y-58624285D01*
X36224047Y-58719523D01*
X36414523Y-58814761D01*
X36700238Y-58814761D01*
X35462142Y-57481428D02*
X34700238Y-57481428D01*
X35176428Y-56814761D02*
X35176428Y-58529047D01*
X35081190Y-58719523D01*
X34890714Y-58814761D01*
X34700238Y-58814761D01*
X33747857Y-58814761D02*
X33938333Y-58719523D01*
X34033571Y-58624285D01*
X34128809Y-58433809D01*
X34128809Y-57862380D01*
X34033571Y-57671904D01*
X33938333Y-57576666D01*
X33747857Y-57481428D01*
X33462142Y-57481428D01*
X33271666Y-57576666D01*
X33176428Y-57671904D01*
X33081190Y-57862380D01*
X33081190Y-58433809D01*
X33176428Y-58624285D01*
X33271666Y-58719523D01*
X33462142Y-58814761D01*
X33747857Y-58814761D01*
X32224047Y-58814761D02*
X32224047Y-57481428D01*
X32224047Y-57862380D02*
X32128809Y-57671904D01*
X32033571Y-57576666D01*
X31843095Y-57481428D01*
X31652619Y-57481428D01*
X29652619Y-57481428D02*
X28605000Y-57481428D01*
X29652619Y-58814761D01*
X28605000Y-58814761D01*
X27081190Y-58719523D02*
X27271666Y-58814761D01*
X27652619Y-58814761D01*
X27843095Y-58719523D01*
X27938333Y-58529047D01*
X27938333Y-57767142D01*
X27843095Y-57576666D01*
X27652619Y-57481428D01*
X27271666Y-57481428D01*
X27081190Y-57576666D01*
X26985952Y-57767142D01*
X26985952Y-57957619D01*
X27938333Y-58148095D01*
X26128809Y-58814761D02*
X26128809Y-57481428D01*
X26128809Y-57862380D02*
X26033571Y-57671904D01*
X25938333Y-57576666D01*
X25747857Y-57481428D01*
X25557380Y-57481428D01*
X24605000Y-58814761D02*
X24795476Y-58719523D01*
X24890714Y-58624285D01*
X24985952Y-58433809D01*
X24985952Y-57862380D01*
X24890714Y-57671904D01*
X24795476Y-57576666D01*
X24605000Y-57481428D01*
X24319285Y-57481428D01*
X24128809Y-57576666D01*
X24033571Y-57671904D01*
X23938333Y-57862380D01*
X23938333Y-58433809D01*
X24033571Y-58624285D01*
X24128809Y-58719523D01*
X24319285Y-58814761D01*
X24605000Y-58814761D01*
X43081190Y-60114761D02*
X44033571Y-60114761D01*
X44128809Y-61067142D01*
X44033571Y-60971904D01*
X43843095Y-60876666D01*
X43366904Y-60876666D01*
X43176428Y-60971904D01*
X43081190Y-61067142D01*
X42985952Y-61257619D01*
X42985952Y-61733809D01*
X43081190Y-61924285D01*
X43176428Y-62019523D01*
X43366904Y-62114761D01*
X43843095Y-62114761D01*
X44033571Y-62019523D01*
X44128809Y-61924285D01*
X42128809Y-61924285D02*
X42033571Y-62019523D01*
X42128809Y-62114761D01*
X42224047Y-62019523D01*
X42128809Y-61924285D01*
X42128809Y-62114761D01*
X38795476Y-60781428D02*
X38795476Y-62400476D01*
X38890714Y-62590952D01*
X38985952Y-62686190D01*
X39176428Y-62781428D01*
X39462142Y-62781428D01*
X39652619Y-62686190D01*
X38795476Y-62019523D02*
X38985952Y-62114761D01*
X39366904Y-62114761D01*
X39557380Y-62019523D01*
X39652619Y-61924285D01*
X39747857Y-61733809D01*
X39747857Y-61162380D01*
X39652619Y-60971904D01*
X39557380Y-60876666D01*
X39366904Y-60781428D01*
X38985952Y-60781428D01*
X38795476Y-60876666D01*
X37843095Y-62114761D02*
X37843095Y-60781428D01*
X37843095Y-61162380D02*
X37747857Y-60971904D01*
X37652619Y-60876666D01*
X37462142Y-60781428D01*
X37271666Y-60781428D01*
X36319285Y-62114761D02*
X36509761Y-62019523D01*
X36605000Y-61924285D01*
X36700238Y-61733809D01*
X36700238Y-61162380D01*
X36605000Y-60971904D01*
X36509761Y-60876666D01*
X36319285Y-60781428D01*
X36033571Y-60781428D01*
X35843095Y-60876666D01*
X35747857Y-60971904D01*
X35652619Y-61162380D01*
X35652619Y-61733809D01*
X35747857Y-61924285D01*
X35843095Y-62019523D01*
X36033571Y-62114761D01*
X36319285Y-62114761D01*
X33938333Y-60781428D02*
X33938333Y-62114761D01*
X34795476Y-60781428D02*
X34795476Y-61829047D01*
X34700238Y-62019523D01*
X34509761Y-62114761D01*
X34224047Y-62114761D01*
X34033571Y-62019523D01*
X33938333Y-61924285D01*
X32985952Y-60781428D02*
X32985952Y-62114761D01*
X32985952Y-60971904D02*
X32890714Y-60876666D01*
X32700238Y-60781428D01*
X32414523Y-60781428D01*
X32224047Y-60876666D01*
X32128809Y-61067142D01*
X32128809Y-62114761D01*
X30319285Y-62114761D02*
X30319285Y-60114761D01*
X30319285Y-62019523D02*
X30509761Y-62114761D01*
X30890714Y-62114761D01*
X31081190Y-62019523D01*
X31176428Y-61924285D01*
X31271666Y-61733809D01*
X31271666Y-61162380D01*
X31176428Y-60971904D01*
X31081190Y-60876666D01*
X30890714Y-60781428D01*
X30509761Y-60781428D01*
X30319285Y-60876666D01*
X43176428Y-63414761D02*
X43557380Y-63414761D01*
X43747857Y-63510000D01*
X43843095Y-63605238D01*
X44033571Y-63890952D01*
X44128809Y-64271904D01*
X44128809Y-65033809D01*
X44033571Y-65224285D01*
X43938333Y-65319523D01*
X43747857Y-65414761D01*
X43366904Y-65414761D01*
X43176428Y-65319523D01*
X43081190Y-65224285D01*
X42985952Y-65033809D01*
X42985952Y-64557619D01*
X43081190Y-64367142D01*
X43176428Y-64271904D01*
X43366904Y-64176666D01*
X43747857Y-64176666D01*
X43938333Y-64271904D01*
X44033571Y-64367142D01*
X44128809Y-64557619D01*
X42128809Y-65224285D02*
X42033571Y-65319523D01*
X42128809Y-65414761D01*
X42224047Y-65319523D01*
X42128809Y-65224285D01*
X42128809Y-65414761D01*
X39843095Y-64081428D02*
X39366904Y-65414761D01*
X38890714Y-64081428D01*
X38128809Y-65414761D02*
X38128809Y-64081428D01*
X38128809Y-63414761D02*
X38224047Y-63510000D01*
X38128809Y-63605238D01*
X38033571Y-63510000D01*
X38128809Y-63414761D01*
X38128809Y-63605238D01*
X37271666Y-65319523D02*
X37081190Y-65414761D01*
X36700238Y-65414761D01*
X36509761Y-65319523D01*
X36414523Y-65129047D01*
X36414523Y-65033809D01*
X36509761Y-64843333D01*
X36700238Y-64748095D01*
X36985952Y-64748095D01*
X37176428Y-64652857D01*
X37271666Y-64462380D01*
X37271666Y-64367142D01*
X37176428Y-64176666D01*
X36985952Y-64081428D01*
X36700238Y-64081428D01*
X36509761Y-64176666D01*
X34700238Y-64081428D02*
X34700238Y-65414761D01*
X35557380Y-64081428D02*
X35557380Y-65129047D01*
X35462142Y-65319523D01*
X35271666Y-65414761D01*
X34985952Y-65414761D01*
X34795476Y-65319523D01*
X34700238Y-65224285D01*
X32890714Y-65414761D02*
X32890714Y-64367142D01*
X32985952Y-64176666D01*
X33176428Y-64081428D01*
X33557380Y-64081428D01*
X33747857Y-64176666D01*
X32890714Y-65319523D02*
X33081190Y-65414761D01*
X33557380Y-65414761D01*
X33747857Y-65319523D01*
X33843095Y-65129047D01*
X33843095Y-64938571D01*
X33747857Y-64748095D01*
X33557380Y-64652857D01*
X33081190Y-64652857D01*
X32890714Y-64557619D01*
X31652619Y-65414761D02*
X31843095Y-65319523D01*
X31938333Y-65129047D01*
X31938333Y-63414761D01*
X29462142Y-65319523D02*
X29271666Y-65414761D01*
X28890714Y-65414761D01*
X28700238Y-65319523D01*
X28605000Y-65129047D01*
X28605000Y-65033809D01*
X28700238Y-64843333D01*
X28890714Y-64748095D01*
X29176428Y-64748095D01*
X29366904Y-64652857D01*
X29462142Y-64462380D01*
X29462142Y-64367142D01*
X29366904Y-64176666D01*
X29176428Y-64081428D01*
X28890714Y-64081428D01*
X28700238Y-64176666D01*
X28033571Y-64081428D02*
X27271666Y-64081428D01*
X27747857Y-63414761D02*
X27747857Y-65129047D01*
X27652619Y-65319523D01*
X27462142Y-65414761D01*
X27271666Y-65414761D01*
X26605000Y-65414761D02*
X26605000Y-64081428D01*
X26605000Y-63414761D02*
X26700238Y-63510000D01*
X26605000Y-63605238D01*
X26509761Y-63510000D01*
X26605000Y-63414761D01*
X26605000Y-63605238D01*
X25652619Y-65414761D02*
X25652619Y-64081428D01*
X25652619Y-64271904D02*
X25557380Y-64176666D01*
X25366904Y-64081428D01*
X25081190Y-64081428D01*
X24890714Y-64176666D01*
X24795476Y-64367142D01*
X24795476Y-65414761D01*
X24795476Y-64367142D02*
X24700238Y-64176666D01*
X24509761Y-64081428D01*
X24224047Y-64081428D01*
X24033571Y-64176666D01*
X23938333Y-64367142D01*
X23938333Y-65414761D01*
X50128809Y-81554761D02*
X50128809Y-79554761D01*
X50128809Y-80507142D02*
X48985952Y-80507142D01*
X48985952Y-81554761D02*
X48985952Y-79554761D01*
X48128809Y-80983333D02*
X47176428Y-80983333D01*
X48319285Y-81554761D02*
X47652619Y-79554761D01*
X46985952Y-81554761D01*
X46319285Y-81554761D02*
X46319285Y-79554761D01*
X45176428Y-81554761D01*
X45176428Y-79554761D01*
X44224047Y-81554761D02*
X44224047Y-79554761D01*
X43747857Y-79554761D01*
X43462142Y-79650000D01*
X43271666Y-79840476D01*
X43176428Y-80030952D01*
X43081190Y-80411904D01*
X43081190Y-80697619D01*
X43176428Y-81078571D01*
X43271666Y-81269047D01*
X43462142Y-81459523D01*
X43747857Y-81554761D01*
X44224047Y-81554761D01*
X41271666Y-81554761D02*
X42224047Y-81554761D01*
X42224047Y-79554761D01*
X40605000Y-80507142D02*
X39938333Y-80507142D01*
X39652619Y-81554761D02*
X40605000Y-81554761D01*
X40605000Y-79554761D01*
X39652619Y-79554761D01*
X38795476Y-81364285D02*
X38700238Y-81459523D01*
X38795476Y-81554761D01*
X38890714Y-81459523D01*
X38795476Y-81364285D01*
X38795476Y-81554761D01*
X38795476Y-80316666D02*
X38700238Y-80411904D01*
X38795476Y-80507142D01*
X38890714Y-80411904D01*
X38795476Y-80316666D01*
X38795476Y-80507142D01*
X42985952Y-84854761D02*
X44128809Y-84854761D01*
X43557380Y-84854761D02*
X43557380Y-82854761D01*
X43747857Y-83140476D01*
X43938333Y-83330952D01*
X44128809Y-83426190D01*
X42128809Y-84664285D02*
X42033571Y-84759523D01*
X42128809Y-84854761D01*
X42224047Y-84759523D01*
X42128809Y-84664285D01*
X42128809Y-84854761D01*
X39938333Y-83521428D02*
X39176428Y-83521428D01*
X39652619Y-82854761D02*
X39652619Y-84569047D01*
X39557380Y-84759523D01*
X39366904Y-84854761D01*
X39176428Y-84854761D01*
X38224047Y-84854761D02*
X38414523Y-84759523D01*
X38509761Y-84664285D01*
X38605000Y-84473809D01*
X38605000Y-83902380D01*
X38509761Y-83711904D01*
X38414523Y-83616666D01*
X38224047Y-83521428D01*
X37938333Y-83521428D01*
X37747857Y-83616666D01*
X37652619Y-83711904D01*
X37557380Y-83902380D01*
X37557380Y-84473809D01*
X37652619Y-84664285D01*
X37747857Y-84759523D01*
X37938333Y-84854761D01*
X38224047Y-84854761D01*
X35843095Y-83521428D02*
X35843095Y-84854761D01*
X36700238Y-83521428D02*
X36700238Y-84569047D01*
X36605000Y-84759523D01*
X36414523Y-84854761D01*
X36128809Y-84854761D01*
X35938333Y-84759523D01*
X35843095Y-84664285D01*
X34033571Y-84759523D02*
X34224047Y-84854761D01*
X34605000Y-84854761D01*
X34795476Y-84759523D01*
X34890714Y-84664285D01*
X34985952Y-84473809D01*
X34985952Y-83902380D01*
X34890714Y-83711904D01*
X34795476Y-83616666D01*
X34605000Y-83521428D01*
X34224047Y-83521428D01*
X34033571Y-83616666D01*
X33176428Y-84854761D02*
X33176428Y-82854761D01*
X32319285Y-84854761D02*
X32319285Y-83807142D01*
X32414523Y-83616666D01*
X32605000Y-83521428D01*
X32890714Y-83521428D01*
X33081190Y-83616666D01*
X33176428Y-83711904D01*
X44128809Y-86345238D02*
X44033571Y-86250000D01*
X43843095Y-86154761D01*
X43366904Y-86154761D01*
X43176428Y-86250000D01*
X43081190Y-86345238D01*
X42985952Y-86535714D01*
X42985952Y-86726190D01*
X43081190Y-87011904D01*
X44224047Y-88154761D01*
X42985952Y-88154761D01*
X42128809Y-87964285D02*
X42033571Y-88059523D01*
X42128809Y-88154761D01*
X42224047Y-88059523D01*
X42128809Y-87964285D01*
X42128809Y-88154761D01*
X38795476Y-88154761D02*
X38795476Y-87107142D01*
X38890714Y-86916666D01*
X39081190Y-86821428D01*
X39462142Y-86821428D01*
X39652619Y-86916666D01*
X38795476Y-88059523D02*
X38985952Y-88154761D01*
X39462142Y-88154761D01*
X39652619Y-88059523D01*
X39747857Y-87869047D01*
X39747857Y-87678571D01*
X39652619Y-87488095D01*
X39462142Y-87392857D01*
X38985952Y-87392857D01*
X38795476Y-87297619D01*
X36985952Y-88059523D02*
X37176428Y-88154761D01*
X37557380Y-88154761D01*
X37747857Y-88059523D01*
X37843095Y-87964285D01*
X37938333Y-87773809D01*
X37938333Y-87202380D01*
X37843095Y-87011904D01*
X37747857Y-86916666D01*
X37557380Y-86821428D01*
X37176428Y-86821428D01*
X36985952Y-86916666D01*
X36414523Y-86821428D02*
X35652619Y-86821428D01*
X36128809Y-86154761D02*
X36128809Y-87869047D01*
X36033571Y-88059523D01*
X35843095Y-88154761D01*
X35652619Y-88154761D01*
X34128809Y-86821428D02*
X34128809Y-88154761D01*
X34985952Y-86821428D02*
X34985952Y-87869047D01*
X34890714Y-88059523D01*
X34700238Y-88154761D01*
X34414523Y-88154761D01*
X34224047Y-88059523D01*
X34128809Y-87964285D01*
X32319285Y-88154761D02*
X32319285Y-87107142D01*
X32414523Y-86916666D01*
X32605000Y-86821428D01*
X32985952Y-86821428D01*
X33176428Y-86916666D01*
X32319285Y-88059523D02*
X32509761Y-88154761D01*
X32985952Y-88154761D01*
X33176428Y-88059523D01*
X33271666Y-87869047D01*
X33271666Y-87678571D01*
X33176428Y-87488095D01*
X32985952Y-87392857D01*
X32509761Y-87392857D01*
X32319285Y-87297619D01*
X31652619Y-86821428D02*
X30890714Y-86821428D01*
X31366904Y-86154761D02*
X31366904Y-87869047D01*
X31271666Y-88059523D01*
X31081190Y-88154761D01*
X30890714Y-88154761D01*
X29938333Y-88154761D02*
X30128809Y-88059523D01*
X30224047Y-87964285D01*
X30319285Y-87773809D01*
X30319285Y-87202380D01*
X30224047Y-87011904D01*
X30128809Y-86916666D01*
X29938333Y-86821428D01*
X29652619Y-86821428D01*
X29462142Y-86916666D01*
X29366904Y-87011904D01*
X29271666Y-87202380D01*
X29271666Y-87773809D01*
X29366904Y-87964285D01*
X29462142Y-88059523D01*
X29652619Y-88154761D01*
X29938333Y-88154761D01*
X28414523Y-88154761D02*
X28414523Y-86821428D01*
X28414523Y-87202380D02*
X28319285Y-87011904D01*
X28224047Y-86916666D01*
X28033571Y-86821428D01*
X27843095Y-86821428D01*
X25652619Y-87392857D02*
X24128809Y-87392857D01*
X24890714Y-88154761D02*
X24890714Y-86630952D01*
X44224047Y-89454761D02*
X42985952Y-89454761D01*
X43652619Y-90216666D01*
X43366904Y-90216666D01*
X43176428Y-90311904D01*
X43081190Y-90407142D01*
X42985952Y-90597619D01*
X42985952Y-91073809D01*
X43081190Y-91264285D01*
X43176428Y-91359523D01*
X43366904Y-91454761D01*
X43938333Y-91454761D01*
X44128809Y-91359523D01*
X44224047Y-91264285D01*
X42128809Y-91264285D02*
X42033571Y-91359523D01*
X42128809Y-91454761D01*
X42224047Y-91359523D01*
X42128809Y-91264285D01*
X42128809Y-91454761D01*
X38795476Y-91454761D02*
X38795476Y-90407142D01*
X38890714Y-90216666D01*
X39081190Y-90121428D01*
X39462142Y-90121428D01*
X39652619Y-90216666D01*
X38795476Y-91359523D02*
X38985952Y-91454761D01*
X39462142Y-91454761D01*
X39652619Y-91359523D01*
X39747857Y-91169047D01*
X39747857Y-90978571D01*
X39652619Y-90788095D01*
X39462142Y-90692857D01*
X38985952Y-90692857D01*
X38795476Y-90597619D01*
X36985952Y-91359523D02*
X37176428Y-91454761D01*
X37557380Y-91454761D01*
X37747857Y-91359523D01*
X37843095Y-91264285D01*
X37938333Y-91073809D01*
X37938333Y-90502380D01*
X37843095Y-90311904D01*
X37747857Y-90216666D01*
X37557380Y-90121428D01*
X37176428Y-90121428D01*
X36985952Y-90216666D01*
X36414523Y-90121428D02*
X35652619Y-90121428D01*
X36128809Y-89454761D02*
X36128809Y-91169047D01*
X36033571Y-91359523D01*
X35843095Y-91454761D01*
X35652619Y-91454761D01*
X34128809Y-90121428D02*
X34128809Y-91454761D01*
X34985952Y-90121428D02*
X34985952Y-91169047D01*
X34890714Y-91359523D01*
X34700238Y-91454761D01*
X34414523Y-91454761D01*
X34224047Y-91359523D01*
X34128809Y-91264285D01*
X32319285Y-91454761D02*
X32319285Y-90407142D01*
X32414523Y-90216666D01*
X32605000Y-90121428D01*
X32985952Y-90121428D01*
X33176428Y-90216666D01*
X32319285Y-91359523D02*
X32509761Y-91454761D01*
X32985952Y-91454761D01*
X33176428Y-91359523D01*
X33271666Y-91169047D01*
X33271666Y-90978571D01*
X33176428Y-90788095D01*
X32985952Y-90692857D01*
X32509761Y-90692857D01*
X32319285Y-90597619D01*
X31652619Y-90121428D02*
X30890714Y-90121428D01*
X31366904Y-89454761D02*
X31366904Y-91169047D01*
X31271666Y-91359523D01*
X31081190Y-91454761D01*
X30890714Y-91454761D01*
X29938333Y-91454761D02*
X30128809Y-91359523D01*
X30224047Y-91264285D01*
X30319285Y-91073809D01*
X30319285Y-90502380D01*
X30224047Y-90311904D01*
X30128809Y-90216666D01*
X29938333Y-90121428D01*
X29652619Y-90121428D01*
X29462142Y-90216666D01*
X29366904Y-90311904D01*
X29271666Y-90502380D01*
X29271666Y-91073809D01*
X29366904Y-91264285D01*
X29462142Y-91359523D01*
X29652619Y-91454761D01*
X29938333Y-91454761D01*
X28414523Y-91454761D02*
X28414523Y-90121428D01*
X28414523Y-90502380D02*
X28319285Y-90311904D01*
X28224047Y-90216666D01*
X28033571Y-90121428D01*
X27843095Y-90121428D01*
X25652619Y-90692857D02*
X24128809Y-90692857D01*
X43176428Y-93421428D02*
X43176428Y-94754761D01*
X43652619Y-92659523D02*
X44128809Y-94088095D01*
X42890714Y-94088095D01*
X42128809Y-94564285D02*
X42033571Y-94659523D01*
X42128809Y-94754761D01*
X42224047Y-94659523D01*
X42128809Y-94564285D01*
X42128809Y-94754761D01*
X39652619Y-94754761D02*
X39652619Y-93421428D01*
X39652619Y-93611904D02*
X39557380Y-93516666D01*
X39366904Y-93421428D01*
X39081190Y-93421428D01*
X38890714Y-93516666D01*
X38795476Y-93707142D01*
X38795476Y-94754761D01*
X38795476Y-93707142D02*
X38700238Y-93516666D01*
X38509761Y-93421428D01*
X38224047Y-93421428D01*
X38033571Y-93516666D01*
X37938333Y-93707142D01*
X37938333Y-94754761D01*
X36700238Y-94754761D02*
X36890714Y-94659523D01*
X36985952Y-94564285D01*
X37081190Y-94373809D01*
X37081190Y-93802380D01*
X36985952Y-93611904D01*
X36890714Y-93516666D01*
X36700238Y-93421428D01*
X36414523Y-93421428D01*
X36224047Y-93516666D01*
X36128809Y-93611904D01*
X36033571Y-93802380D01*
X36033571Y-94373809D01*
X36128809Y-94564285D01*
X36224047Y-94659523D01*
X36414523Y-94754761D01*
X36700238Y-94754761D01*
X35462142Y-93421428D02*
X34700238Y-93421428D01*
X35176428Y-92754761D02*
X35176428Y-94469047D01*
X35081190Y-94659523D01*
X34890714Y-94754761D01*
X34700238Y-94754761D01*
X33747857Y-94754761D02*
X33938333Y-94659523D01*
X34033571Y-94564285D01*
X34128809Y-94373809D01*
X34128809Y-93802380D01*
X34033571Y-93611904D01*
X33938333Y-93516666D01*
X33747857Y-93421428D01*
X33462142Y-93421428D01*
X33271666Y-93516666D01*
X33176428Y-93611904D01*
X33081190Y-93802380D01*
X33081190Y-94373809D01*
X33176428Y-94564285D01*
X33271666Y-94659523D01*
X33462142Y-94754761D01*
X33747857Y-94754761D01*
X32224047Y-94754761D02*
X32224047Y-93421428D01*
X32224047Y-93802380D02*
X32128809Y-93611904D01*
X32033571Y-93516666D01*
X31843095Y-93421428D01*
X31652619Y-93421428D01*
X29652619Y-93421428D02*
X28605000Y-93421428D01*
X29652619Y-94754761D01*
X28605000Y-94754761D01*
X27081190Y-94659523D02*
X27271666Y-94754761D01*
X27652619Y-94754761D01*
X27843095Y-94659523D01*
X27938333Y-94469047D01*
X27938333Y-93707142D01*
X27843095Y-93516666D01*
X27652619Y-93421428D01*
X27271666Y-93421428D01*
X27081190Y-93516666D01*
X26985952Y-93707142D01*
X26985952Y-93897619D01*
X27938333Y-94088095D01*
X26128809Y-94754761D02*
X26128809Y-93421428D01*
X26128809Y-93802380D02*
X26033571Y-93611904D01*
X25938333Y-93516666D01*
X25747857Y-93421428D01*
X25557380Y-93421428D01*
X24605000Y-94754761D02*
X24795476Y-94659523D01*
X24890714Y-94564285D01*
X24985952Y-94373809D01*
X24985952Y-93802380D01*
X24890714Y-93611904D01*
X24795476Y-93516666D01*
X24605000Y-93421428D01*
X24319285Y-93421428D01*
X24128809Y-93516666D01*
X24033571Y-93611904D01*
X23938333Y-93802380D01*
X23938333Y-94373809D01*
X24033571Y-94564285D01*
X24128809Y-94659523D01*
X24319285Y-94754761D01*
X24605000Y-94754761D01*
X43081190Y-96054761D02*
X44033571Y-96054761D01*
X44128809Y-97007142D01*
X44033571Y-96911904D01*
X43843095Y-96816666D01*
X43366904Y-96816666D01*
X43176428Y-96911904D01*
X43081190Y-97007142D01*
X42985952Y-97197619D01*
X42985952Y-97673809D01*
X43081190Y-97864285D01*
X43176428Y-97959523D01*
X43366904Y-98054761D01*
X43843095Y-98054761D01*
X44033571Y-97959523D01*
X44128809Y-97864285D01*
X42128809Y-97864285D02*
X42033571Y-97959523D01*
X42128809Y-98054761D01*
X42224047Y-97959523D01*
X42128809Y-97864285D01*
X42128809Y-98054761D01*
X38795476Y-96721428D02*
X38795476Y-98340476D01*
X38890714Y-98530952D01*
X38985952Y-98626190D01*
X39176428Y-98721428D01*
X39462142Y-98721428D01*
X39652619Y-98626190D01*
X38795476Y-97959523D02*
X38985952Y-98054761D01*
X39366904Y-98054761D01*
X39557380Y-97959523D01*
X39652619Y-97864285D01*
X39747857Y-97673809D01*
X39747857Y-97102380D01*
X39652619Y-96911904D01*
X39557380Y-96816666D01*
X39366904Y-96721428D01*
X38985952Y-96721428D01*
X38795476Y-96816666D01*
X37843095Y-98054761D02*
X37843095Y-96721428D01*
X37843095Y-97102380D02*
X37747857Y-96911904D01*
X37652619Y-96816666D01*
X37462142Y-96721428D01*
X37271666Y-96721428D01*
X36319285Y-98054761D02*
X36509761Y-97959523D01*
X36605000Y-97864285D01*
X36700238Y-97673809D01*
X36700238Y-97102380D01*
X36605000Y-96911904D01*
X36509761Y-96816666D01*
X36319285Y-96721428D01*
X36033571Y-96721428D01*
X35843095Y-96816666D01*
X35747857Y-96911904D01*
X35652619Y-97102380D01*
X35652619Y-97673809D01*
X35747857Y-97864285D01*
X35843095Y-97959523D01*
X36033571Y-98054761D01*
X36319285Y-98054761D01*
X33938333Y-96721428D02*
X33938333Y-98054761D01*
X34795476Y-96721428D02*
X34795476Y-97769047D01*
X34700238Y-97959523D01*
X34509761Y-98054761D01*
X34224047Y-98054761D01*
X34033571Y-97959523D01*
X33938333Y-97864285D01*
X32985952Y-96721428D02*
X32985952Y-98054761D01*
X32985952Y-96911904D02*
X32890714Y-96816666D01*
X32700238Y-96721428D01*
X32414523Y-96721428D01*
X32224047Y-96816666D01*
X32128809Y-97007142D01*
X32128809Y-98054761D01*
X30319285Y-98054761D02*
X30319285Y-96054761D01*
X30319285Y-97959523D02*
X30509761Y-98054761D01*
X30890714Y-98054761D01*
X31081190Y-97959523D01*
X31176428Y-97864285D01*
X31271666Y-97673809D01*
X31271666Y-97102380D01*
X31176428Y-96911904D01*
X31081190Y-96816666D01*
X30890714Y-96721428D01*
X30509761Y-96721428D01*
X30319285Y-96816666D01*
M02*
