G04 #@! TF.GenerationSoftware,KiCad,Pcbnew,5.1.6*
G04 #@! TF.CreationDate,2020-08-28T22:15:26-07:00*
G04 #@! TF.ProjectId,controller,636f6e74-726f-46c6-9c65-722e6b696361,rev?*
G04 #@! TF.SameCoordinates,Original*
G04 #@! TF.FileFunction,Soldermask,Top*
G04 #@! TF.FilePolarity,Negative*
%FSLAX46Y46*%
G04 Gerber Fmt 4.6, Leading zero omitted, Abs format (unit mm)*
G04 Created by KiCad (PCBNEW 5.1.6) date 2020-08-28 22:15:26*
%MOMM*%
%LPD*%
G01*
G04 APERTURE LIST*
%ADD10C,6.400000*%
%ADD11C,2.600000*%
%ADD12O,1.600000X1.600000*%
%ADD13R,1.600000X1.600000*%
%ADD14C,0.100000*%
%ADD15C,1.900000*%
%ADD16C,1.600000*%
%ADD17C,3.500000*%
%ADD18R,3.500000X3.500000*%
%ADD19C,1.500000*%
%ADD20O,3.500000X7.000000*%
%ADD21R,1.500000X1.500000*%
%ADD22C,1.676400*%
%ADD23C,2.184400*%
%ADD24C,1.778000*%
G04 APERTURE END LIST*
D10*
G04 #@! TO.C,mount1*
X34290000Y-76200000D03*
G04 #@! TD*
G04 #@! TO.C,mount2*
X143510000Y-76200000D03*
G04 #@! TD*
D11*
G04 #@! TO.C,JP1*
X163830000Y-33020000D03*
G36*
G01*
X164480000Y-39400000D02*
X163180000Y-39400000D01*
G75*
G02*
X162530000Y-38750000I0J650000D01*
G01*
X162530000Y-37450000D01*
G75*
G02*
X163180000Y-36800000I650000J0D01*
G01*
X164480000Y-36800000D01*
G75*
G02*
X165130000Y-37450000I0J-650000D01*
G01*
X165130000Y-38750000D01*
G75*
G02*
X164480000Y-39400000I-650000J0D01*
G01*
G37*
G04 #@! TD*
D12*
G04 #@! TO.C,MC-LeverR1*
X215900000Y-33020000D03*
X203200000Y-50800000D03*
X215900000Y-35560000D03*
X203200000Y-48260000D03*
X215900000Y-38100000D03*
X203200000Y-45720000D03*
X215900000Y-40640000D03*
X203200000Y-43180000D03*
X215900000Y-43180000D03*
X203200000Y-40640000D03*
X215900000Y-45720000D03*
X203200000Y-38100000D03*
X215900000Y-48260000D03*
X203200000Y-35560000D03*
X215900000Y-50800000D03*
D13*
X203200000Y-33020000D03*
G04 #@! TD*
D12*
G04 #@! TO.C,MC-SpoutR1*
X215900000Y-58420000D03*
X203200000Y-76200000D03*
X215900000Y-60960000D03*
X203200000Y-73660000D03*
X215900000Y-63500000D03*
X203200000Y-71120000D03*
X215900000Y-66040000D03*
X203200000Y-68580000D03*
X215900000Y-68580000D03*
X203200000Y-66040000D03*
X215900000Y-71120000D03*
X203200000Y-63500000D03*
X215900000Y-73660000D03*
X203200000Y-60960000D03*
X215900000Y-76200000D03*
D13*
X203200000Y-58420000D03*
G04 #@! TD*
D12*
G04 #@! TO.C,MC-SpoutL1*
X187960000Y-58420000D03*
X175260000Y-76200000D03*
X187960000Y-60960000D03*
X175260000Y-73660000D03*
X187960000Y-63500000D03*
X175260000Y-71120000D03*
X187960000Y-66040000D03*
X175260000Y-68580000D03*
X187960000Y-68580000D03*
X175260000Y-66040000D03*
X187960000Y-71120000D03*
X175260000Y-63500000D03*
X187960000Y-73660000D03*
X175260000Y-60960000D03*
X187960000Y-76200000D03*
D13*
X175260000Y-58420000D03*
G04 #@! TD*
D12*
G04 #@! TO.C,MC-LeverL1*
X187960000Y-33020000D03*
X175260000Y-50800000D03*
X187960000Y-35560000D03*
X175260000Y-48260000D03*
X187960000Y-38100000D03*
X175260000Y-45720000D03*
X187960000Y-40640000D03*
X175260000Y-43180000D03*
X187960000Y-43180000D03*
X175260000Y-40640000D03*
X187960000Y-45720000D03*
X175260000Y-38100000D03*
X187960000Y-48260000D03*
X175260000Y-35560000D03*
X187960000Y-50800000D03*
D13*
X175260000Y-33020000D03*
G04 #@! TD*
D14*
G04 #@! TO.C,SW12*
G36*
X131545000Y-95750000D02*
G01*
X128545000Y-95750000D01*
X128545000Y-94750000D01*
X131545000Y-94750000D01*
X131545000Y-95750000D01*
G37*
G36*
X126720000Y-95750000D02*
G01*
X123720000Y-95750000D01*
X123720000Y-94750000D01*
X126720000Y-94750000D01*
X126720000Y-95750000D01*
G37*
G36*
X121895000Y-95750000D02*
G01*
X118895000Y-95750000D01*
X118895000Y-94750000D01*
X121895000Y-94750000D01*
X121895000Y-95750000D01*
G37*
G04 #@! TD*
G04 #@! TO.C,SW9*
G36*
X230370000Y-60225000D02*
G01*
X230370000Y-63225000D01*
X229370000Y-63225000D01*
X229370000Y-60225000D01*
X230370000Y-60225000D01*
G37*
G36*
X230370000Y-65050000D02*
G01*
X230370000Y-68050000D01*
X229370000Y-68050000D01*
X229370000Y-65050000D01*
X230370000Y-65050000D01*
G37*
G36*
X230370000Y-69875000D02*
G01*
X230370000Y-72875000D01*
X229370000Y-72875000D01*
X229370000Y-69875000D01*
X230370000Y-69875000D01*
G37*
G04 #@! TD*
G04 #@! TO.C,SW5*
G36*
X142775000Y-38870000D02*
G01*
X145775000Y-38870000D01*
X145775000Y-39870000D01*
X142775000Y-39870000D01*
X142775000Y-38870000D01*
G37*
G36*
X147600000Y-38870000D02*
G01*
X150600000Y-38870000D01*
X150600000Y-39870000D01*
X147600000Y-39870000D01*
X147600000Y-38870000D01*
G37*
G36*
X152425000Y-38870000D02*
G01*
X155425000Y-38870000D01*
X155425000Y-39870000D01*
X152425000Y-39870000D01*
X152425000Y-38870000D01*
G37*
G04 #@! TD*
D15*
G04 #@! TO.C,U1*
X113030000Y-39370000D03*
X113030000Y-43180000D03*
D13*
X105410000Y-33020000D03*
D16*
X105410000Y-35560000D03*
X105410000Y-38100000D03*
X105410000Y-40640000D03*
X105410000Y-43180000D03*
X105410000Y-45720000D03*
X105410000Y-48260000D03*
X105410000Y-50800000D03*
X105410000Y-53340000D03*
X105410000Y-55880000D03*
X105410000Y-58420000D03*
X105410000Y-60960000D03*
X105410000Y-63500000D03*
X118110000Y-45720000D03*
X118110000Y-43180000D03*
X118110000Y-40640000D03*
X118110000Y-35560000D03*
X120650000Y-33020000D03*
X120650000Y-35560000D03*
X120650000Y-38100000D03*
X120650000Y-40640000D03*
X120650000Y-43180000D03*
X120650000Y-45720000D03*
X120650000Y-48260000D03*
X120650000Y-50800000D03*
X120650000Y-53340000D03*
X120650000Y-55880000D03*
X120650000Y-58420000D03*
X120650000Y-60960000D03*
X120650000Y-63500000D03*
X105410000Y-66040000D03*
X107950000Y-66040000D03*
X110490000Y-66040000D03*
X120650000Y-66040000D03*
X118110000Y-66040000D03*
X115570000Y-66040000D03*
X113030000Y-66040000D03*
G04 #@! TD*
D17*
G04 #@! TO.C,ToHandleR1*
X21590000Y-97790000D03*
X21590000Y-92710000D03*
X21590000Y-87630000D03*
X21590000Y-82550000D03*
D18*
X21590000Y-77470000D03*
G04 #@! TD*
D17*
G04 #@! TO.C,ToHandleL1*
X53340000Y-97790000D03*
X53340000Y-92710000D03*
X53340000Y-87630000D03*
X53340000Y-82550000D03*
D18*
X53340000Y-77470000D03*
G04 #@! TD*
D17*
G04 #@! TO.C,sync_trigger_out1*
X154940000Y-60960000D03*
X149860000Y-60960000D03*
X144780000Y-60960000D03*
X139700000Y-60960000D03*
D18*
X134620000Y-60960000D03*
G04 #@! TD*
D17*
G04 #@! TO.C,SpoutR-ToMotor1*
X227330000Y-100330000D03*
X227330000Y-95250000D03*
X227330000Y-90170000D03*
D18*
X227330000Y-85090000D03*
G04 #@! TD*
D17*
G04 #@! TO.C,SpoutL-ToMotor1*
X185420000Y-100330000D03*
X185420000Y-95250000D03*
X185420000Y-90170000D03*
D18*
X185420000Y-85090000D03*
G04 #@! TD*
D17*
G04 #@! TO.C,SoundVisionR1*
X21590000Y-68580000D03*
X21590000Y-63500000D03*
X21590000Y-58420000D03*
X21590000Y-53340000D03*
X21590000Y-48260000D03*
D18*
X21590000Y-43180000D03*
G04 #@! TD*
D17*
G04 #@! TO.C,SoundVisionL1*
X53340000Y-68580000D03*
X53340000Y-63500000D03*
X53340000Y-58420000D03*
X53340000Y-53340000D03*
X53340000Y-48260000D03*
D18*
X53340000Y-43180000D03*
G04 #@! TD*
D17*
G04 #@! TO.C,J9V1*
X226060000Y-36830000D03*
D18*
X231140000Y-36830000D03*
G04 #@! TD*
D17*
G04 #@! TO.C,J5V2*
X49530000Y-33020000D03*
D18*
X54610000Y-33020000D03*
G04 #@! TD*
D17*
G04 #@! TO.C,J5V1*
X19050000Y-33020000D03*
D18*
X24130000Y-33020000D03*
G04 #@! TD*
D17*
G04 #@! TO.C,J12V4*
X76200000Y-95250000D03*
D18*
X71120000Y-95250000D03*
G04 #@! TD*
D17*
G04 #@! TO.C,J12V3*
X110490000Y-95250000D03*
D18*
X105410000Y-95250000D03*
G04 #@! TD*
D17*
G04 #@! TO.C,J12V2*
X99060000Y-95250000D03*
D18*
X93980000Y-95250000D03*
G04 #@! TD*
D17*
G04 #@! TO.C,J12V1*
X87630000Y-95250000D03*
D18*
X82550000Y-95250000D03*
G04 #@! TD*
D19*
G04 #@! TO.C,J2*
X77470000Y-48260000D03*
X74930000Y-48260000D03*
D20*
X86550000Y-39370000D03*
D19*
X82550000Y-48260000D03*
D21*
X83820000Y-45720000D03*
D19*
X76200000Y-45720000D03*
X80010000Y-48260000D03*
X78740000Y-45720000D03*
X81280000Y-45720000D03*
D20*
X73660000Y-39370000D03*
G04 #@! TD*
D17*
G04 #@! TO.C,HandleR-ToMotor1*
X207010000Y-100330000D03*
X207010000Y-95250000D03*
X207010000Y-90170000D03*
D18*
X207010000Y-85090000D03*
G04 #@! TD*
D17*
G04 #@! TO.C,HandleL-ToMotor1*
X165100000Y-100330000D03*
X165100000Y-95250000D03*
X165100000Y-90170000D03*
D18*
X165100000Y-85090000D03*
G04 #@! TD*
D17*
G04 #@! TO.C,distractor1*
X39370000Y-33020000D03*
D18*
X34290000Y-33020000D03*
G04 #@! TD*
D16*
G04 #@! TO.C,C4*
X167640000Y-69930000D03*
X167640000Y-74930000D03*
G04 #@! TD*
G04 #@! TO.C,C3*
X195580000Y-44530000D03*
X195580000Y-49530000D03*
G04 #@! TD*
G04 #@! TO.C,C2*
X167640000Y-44530000D03*
X167640000Y-49530000D03*
G04 #@! TD*
G04 #@! TO.C,C1*
X195580000Y-69930000D03*
X195580000Y-74930000D03*
G04 #@! TD*
G04 #@! TO.C,9V1*
G36*
G01*
X230810000Y-43955000D02*
X230810000Y-45705000D01*
G75*
G02*
X229935000Y-46580000I-875000J0D01*
G01*
X228185000Y-46580000D01*
G75*
G02*
X227310000Y-45705000I0J875000D01*
G01*
X227310000Y-43955000D01*
G75*
G02*
X228185000Y-43080000I875000J0D01*
G01*
X229935000Y-43080000D01*
G75*
G02*
X230810000Y-43955000I0J-875000D01*
G01*
G37*
G36*
G01*
X233560000Y-48530000D02*
X233560000Y-50530000D01*
G75*
G02*
X232810000Y-51280000I-750000J0D01*
G01*
X231310000Y-51280000D01*
G75*
G02*
X230560000Y-50530000I0J750000D01*
G01*
X230560000Y-48530000D01*
G75*
G02*
X231310000Y-47780000I750000J0D01*
G01*
X232810000Y-47780000D01*
G75*
G02*
X233560000Y-48530000I0J-750000D01*
G01*
G37*
D18*
X226060000Y-49530000D03*
G04 #@! TD*
G04 #@! TO.C,5V1*
G36*
G01*
X126505000Y-35890000D02*
X128255000Y-35890000D01*
G75*
G02*
X129130000Y-36765000I0J-875000D01*
G01*
X129130000Y-38515000D01*
G75*
G02*
X128255000Y-39390000I-875000J0D01*
G01*
X126505000Y-39390000D01*
G75*
G02*
X125630000Y-38515000I0J875000D01*
G01*
X125630000Y-36765000D01*
G75*
G02*
X126505000Y-35890000I875000J0D01*
G01*
G37*
G36*
G01*
X131080000Y-33140000D02*
X133080000Y-33140000D01*
G75*
G02*
X133830000Y-33890000I0J-750000D01*
G01*
X133830000Y-35390000D01*
G75*
G02*
X133080000Y-36140000I-750000J0D01*
G01*
X131080000Y-36140000D01*
G75*
G02*
X130330000Y-35390000I0J750000D01*
G01*
X130330000Y-33890000D01*
G75*
G02*
X131080000Y-33140000I750000J0D01*
G01*
G37*
X132080000Y-40640000D03*
G04 #@! TD*
G04 #@! TO.C,12V1*
G36*
G01*
X147815000Y-97460000D02*
X146065000Y-97460000D01*
G75*
G02*
X145190000Y-96585000I0J875000D01*
G01*
X145190000Y-94835000D01*
G75*
G02*
X146065000Y-93960000I875000J0D01*
G01*
X147815000Y-93960000D01*
G75*
G02*
X148690000Y-94835000I0J-875000D01*
G01*
X148690000Y-96585000D01*
G75*
G02*
X147815000Y-97460000I-875000J0D01*
G01*
G37*
G36*
G01*
X143240000Y-100210000D02*
X141240000Y-100210000D01*
G75*
G02*
X140490000Y-99460000I0J750000D01*
G01*
X140490000Y-97960000D01*
G75*
G02*
X141240000Y-97210000I750000J0D01*
G01*
X143240000Y-97210000D01*
G75*
G02*
X143990000Y-97960000I0J-750000D01*
G01*
X143990000Y-99460000D01*
G75*
G02*
X143240000Y-100210000I-750000J0D01*
G01*
G37*
X142240000Y-92710000D03*
G04 #@! TD*
D22*
G04 #@! TO.C,U2*
X68148200Y-72821800D03*
X70688200Y-72821800D03*
X68148200Y-70281800D03*
X70688200Y-70281800D03*
X68148200Y-67741800D03*
X70688200Y-67741800D03*
X68148200Y-65201800D03*
X70688200Y-65201800D03*
D23*
X75338200Y-77901800D03*
X78838200Y-77901800D03*
X82958200Y-77901800D03*
X86458210Y-77901800D03*
D24*
X70739000Y-60833000D03*
X73279000Y-60833000D03*
X75819000Y-60833000D03*
X78359000Y-60833000D03*
X80899000Y-60833000D03*
X83439000Y-60833000D03*
X85979000Y-60833000D03*
X88519000Y-60833000D03*
X91059000Y-60833000D03*
G04 #@! TD*
M02*
