G04 EAGLE Gerber RS-274X export*
G75*
%MOMM*%
%FSLAX34Y34*%
%LPD*%
%INSoldermask Bottom*%
%IPPOS*%
%AMOC8*
5,1,8,0,0,1.08239X$1,22.5*%
G01*
G04 Define Apertures*
%ADD10C,1.203200*%
%ADD11C,1.311200*%
%ADD12C,2.082800*%
%ADD13R,2.082800X2.082800*%
%ADD14C,3.403200*%
%ADD15R,1.311200X1.311200*%
%ADD16C,1.463200*%
D10*
X-448945Y540385D03*
X-444500Y150495D03*
X229235Y356235D03*
X1082040Y569595D03*
X1089660Y143510D03*
D11*
X-228600Y368300D03*
X-203200Y368300D03*
X0Y469900D03*
X25400Y469900D03*
D12*
X-679450Y152400D03*
X-692150Y127000D03*
X-704850Y152400D03*
X-730250Y152400D03*
X-755650Y152400D03*
X-717550Y127000D03*
X-742950Y127000D03*
D13*
X-768350Y127000D03*
D14*
X-781050Y63500D03*
X-666750Y63500D03*
D12*
X679450Y152400D03*
X666750Y127000D03*
X654050Y152400D03*
X628650Y152400D03*
X603250Y152400D03*
X641350Y127000D03*
X615950Y127000D03*
D13*
X590550Y127000D03*
D14*
X577850Y63500D03*
X692150Y63500D03*
D12*
X44450Y159258D03*
X31750Y133858D03*
X19050Y159258D03*
X-6350Y159258D03*
X-31750Y159258D03*
X6350Y133858D03*
X-19050Y133858D03*
D13*
X-44450Y133858D03*
D14*
X-57150Y70358D03*
X57150Y70358D03*
D12*
X1263650Y152400D03*
X1250950Y127000D03*
X1238250Y152400D03*
X1212850Y152400D03*
X1187450Y152400D03*
X1225550Y127000D03*
X1200150Y127000D03*
D13*
X1174750Y127000D03*
D14*
X1162050Y63500D03*
X1276350Y63500D03*
D15*
X-673100Y381000D03*
D11*
X-673100Y355600D03*
X-673100Y330200D03*
X-673100Y304800D03*
D15*
X-787400Y381000D03*
D11*
X-787400Y355600D03*
X-787400Y330200D03*
X-787400Y304800D03*
X-228600Y419100D03*
X-203200Y419100D03*
X-228600Y469900D03*
X-203200Y469900D03*
X-228600Y520700D03*
X-203200Y520700D03*
X0Y368300D03*
X25400Y368300D03*
X0Y419100D03*
X25400Y419100D03*
X0Y520700D03*
X25400Y520700D03*
D15*
X406400Y317500D03*
X381000Y317500D03*
X685800Y317500D03*
X660400Y317500D03*
X952500Y317500D03*
X927100Y317500D03*
D16*
X381000Y429900D03*
X381000Y357500D03*
X660400Y429900D03*
X660400Y357500D03*
X927100Y429900D03*
X927100Y357500D03*
D15*
X1181100Y381000D03*
D11*
X1206500Y381000D03*
X1231900Y381000D03*
X1257300Y381000D03*
X1181100Y330200D03*
X1206500Y330200D03*
X1231900Y330200D03*
X1257300Y330200D03*
D15*
X-203200Y228600D03*
D11*
X-203200Y254000D03*
X-203200Y279400D03*
X-203200Y304800D03*
M02*
